<mxfile host="app.diagrams.net" modified="2023-07-07T09:53:42.789Z" agent="Mozilla/5.0 (X11; Linux x86_64) AppleWebKit/537.36 (KHTML, like Gecko) Chrome/114.0.0.0 Safari/537.36" etag="oG-euvcnFeUGQ9PxL1gr" version="21.6.1" type="github">
  <diagram name="Page-1" id="S7FRAT3Iel4neWOIYrB_">
    <mxGraphModel dx="1607" dy="1167" grid="1" gridSize="10" guides="1" tooltips="1" connect="1" arrows="1" fold="1" page="1" pageScale="1" pageWidth="850" pageHeight="1100" math="0" shadow="0">
      <root>
        <mxCell id="0" />
        <mxCell id="1" parent="0" />
        <mxCell id="4T8DUvPG1SAxmXyFzRtK-12" value="Mindmap" style="swimlane;startSize=20;horizontal=1;containerType=tree;strokeColor=default;fillColor=none;swimlaneFillColor=none;gradientColor=none;glass=0;shadow=0;movable=1;resizable=1;rotatable=1;deletable=1;editable=1;locked=0;connectable=1;swimlaneLine=1;container=0;" parent="1" vertex="1">
          <mxGeometry x="380" y="200" width="2670" height="2930" as="geometry">
            <mxRectangle x="641" y="1015" width="90" height="30" as="alternateBounds" />
          </mxGeometry>
        </mxCell>
        <mxCell id="4T8DUvPG1SAxmXyFzRtK-73" value="summary" style="whiteSpace=wrap;html=1;rounded=1;arcSize=50;align=center;verticalAlign=middle;strokeWidth=1;autosize=1;spacing=4;treeFolding=1;treeMoving=1;newEdgeStyle={&quot;edgeStyle&quot;:&quot;entityRelationEdgeStyle&quot;,&quot;startArrow&quot;:&quot;none&quot;,&quot;endArrow&quot;:&quot;none&quot;,&quot;segment&quot;:10,&quot;curved&quot;:1,&quot;sourcePerimeterSpacing&quot;:0,&quot;targetPerimeterSpacing&quot;:0};fillColor=#e1d5e7;strokeColor=#9673a6;container=0;" parent="4T8DUvPG1SAxmXyFzRtK-12" vertex="1">
          <mxGeometry x="830" y="1405" width="90" height="30" as="geometry" />
        </mxCell>
        <mxCell id="4T8DUvPG1SAxmXyFzRtK-72" value="" style="edgeStyle=entityRelationEdgeStyle;startArrow=none;endArrow=none;segment=10;curved=1;sourcePerimeterSpacing=0;targetPerimeterSpacing=0;rounded=0;" parent="4T8DUvPG1SAxmXyFzRtK-12" source="4T8DUvPG1SAxmXyFzRtK-20" target="4T8DUvPG1SAxmXyFzRtK-73" edge="1">
          <mxGeometry relative="1" as="geometry">
            <mxPoint x="1756" y="2375" as="sourcePoint" />
          </mxGeometry>
        </mxCell>
        <mxCell id="4T8DUvPG1SAxmXyFzRtK-111" value="" style="edgeStyle=entityRelationEdgeStyle;startArrow=none;endArrow=none;segment=10;curved=1;sourcePerimeterSpacing=0;targetPerimeterSpacing=0;rounded=0;" parent="4T8DUvPG1SAxmXyFzRtK-12" source="4T8DUvPG1SAxmXyFzRtK-73" target="4T8DUvPG1SAxmXyFzRtK-112" edge="1">
          <mxGeometry relative="1" as="geometry">
            <mxPoint x="1614" y="2380" as="sourcePoint" />
          </mxGeometry>
        </mxCell>
        <mxCell id="4T8DUvPG1SAxmXyFzRtK-112" value="Latency" style="whiteSpace=wrap;html=1;rounded=1;arcSize=50;align=center;verticalAlign=middle;strokeWidth=1;autosize=1;spacing=4;treeFolding=1;treeMoving=1;newEdgeStyle={&quot;edgeStyle&quot;:&quot;entityRelationEdgeStyle&quot;,&quot;startArrow&quot;:&quot;none&quot;,&quot;endArrow&quot;:&quot;none&quot;,&quot;segment&quot;:10,&quot;curved&quot;:1,&quot;sourcePerimeterSpacing&quot;:0,&quot;targetPerimeterSpacing&quot;:0};fillColor=#e1d5e7;strokeColor=#9673a6;container=0;" parent="4T8DUvPG1SAxmXyFzRtK-12" vertex="1">
          <mxGeometry x="695" y="1420" width="90" height="30" as="geometry" />
        </mxCell>
        <mxCell id="4T8DUvPG1SAxmXyFzRtK-113" value="" style="edgeStyle=entityRelationEdgeStyle;rounded=0;orthogonalLoop=1;jettySize=auto;html=1;startArrow=none;endArrow=none;segment=10;curved=1;sourcePerimeterSpacing=0;targetPerimeterSpacing=0;" parent="4T8DUvPG1SAxmXyFzRtK-12" source="4T8DUvPG1SAxmXyFzRtK-73" target="4T8DUvPG1SAxmXyFzRtK-112" edge="1">
          <mxGeometry relative="1" as="geometry" />
        </mxCell>
        <mxCell id="4T8DUvPG1SAxmXyFzRtK-114" value="" style="edgeStyle=entityRelationEdgeStyle;rounded=0;orthogonalLoop=1;jettySize=auto;html=1;startArrow=none;endArrow=none;segment=10;curved=1;sourcePerimeterSpacing=0;targetPerimeterSpacing=0;" parent="4T8DUvPG1SAxmXyFzRtK-12" source="4T8DUvPG1SAxmXyFzRtK-73" target="4T8DUvPG1SAxmXyFzRtK-112" edge="1">
          <mxGeometry relative="1" as="geometry" />
        </mxCell>
        <mxCell id="4T8DUvPG1SAxmXyFzRtK-119" value="" style="edgeStyle=entityRelationEdgeStyle;rounded=0;orthogonalLoop=1;jettySize=auto;html=1;startArrow=none;endArrow=none;segment=10;curved=1;sourcePerimeterSpacing=0;targetPerimeterSpacing=0;" parent="4T8DUvPG1SAxmXyFzRtK-12" source="4T8DUvPG1SAxmXyFzRtK-73" target="4T8DUvPG1SAxmXyFzRtK-112" edge="1">
          <mxGeometry relative="1" as="geometry" />
        </mxCell>
        <mxCell id="4T8DUvPG1SAxmXyFzRtK-117" value="Jitter" style="whiteSpace=wrap;html=1;rounded=1;arcSize=50;align=center;verticalAlign=middle;strokeWidth=1;autosize=1;spacing=4;treeFolding=1;treeMoving=1;newEdgeStyle={&quot;edgeStyle&quot;:&quot;entityRelationEdgeStyle&quot;,&quot;startArrow&quot;:&quot;none&quot;,&quot;endArrow&quot;:&quot;none&quot;,&quot;segment&quot;:10,&quot;curved&quot;:1,&quot;sourcePerimeterSpacing&quot;:0,&quot;targetPerimeterSpacing&quot;:0};fillColor=#e1d5e7;strokeColor=#9673a6;container=0;" parent="4T8DUvPG1SAxmXyFzRtK-12" vertex="1">
          <mxGeometry x="705" y="1470" width="70" height="30" as="geometry" />
        </mxCell>
        <mxCell id="4T8DUvPG1SAxmXyFzRtK-118" value="" style="edgeStyle=entityRelationEdgeStyle;rounded=0;orthogonalLoop=1;jettySize=auto;html=1;startArrow=none;endArrow=none;segment=10;curved=1;sourcePerimeterSpacing=0;targetPerimeterSpacing=0;" parent="4T8DUvPG1SAxmXyFzRtK-12" source="4T8DUvPG1SAxmXyFzRtK-73" target="4T8DUvPG1SAxmXyFzRtK-117" edge="1">
          <mxGeometry relative="1" as="geometry" />
        </mxCell>
        <mxCell id="4T8DUvPG1SAxmXyFzRtK-120" value="speed" style="whiteSpace=wrap;html=1;rounded=1;arcSize=50;align=center;verticalAlign=middle;strokeWidth=1;autosize=1;spacing=4;treeFolding=1;treeMoving=1;newEdgeStyle={&quot;edgeStyle&quot;:&quot;entityRelationEdgeStyle&quot;,&quot;startArrow&quot;:&quot;none&quot;,&quot;endArrow&quot;:&quot;none&quot;,&quot;segment&quot;:10,&quot;curved&quot;:1,&quot;sourcePerimeterSpacing&quot;:0,&quot;targetPerimeterSpacing&quot;:0};fillColor=#e1d5e7;strokeColor=#9673a6;container=0;" parent="4T8DUvPG1SAxmXyFzRtK-12" vertex="1">
          <mxGeometry x="700" y="1515" width="80" height="30" as="geometry" />
        </mxCell>
        <mxCell id="4T8DUvPG1SAxmXyFzRtK-121" value="" style="edgeStyle=entityRelationEdgeStyle;rounded=0;orthogonalLoop=1;jettySize=auto;html=1;startArrow=none;endArrow=none;segment=10;curved=1;sourcePerimeterSpacing=0;targetPerimeterSpacing=0;" parent="4T8DUvPG1SAxmXyFzRtK-12" source="4T8DUvPG1SAxmXyFzRtK-73" target="4T8DUvPG1SAxmXyFzRtK-120" edge="1">
          <mxGeometry relative="1" as="geometry" />
        </mxCell>
        <mxCell id="4T8DUvPG1SAxmXyFzRtK-71" value="gist" style="whiteSpace=wrap;html=1;rounded=1;arcSize=50;align=center;verticalAlign=middle;strokeWidth=1;autosize=1;spacing=4;treeFolding=1;treeMoving=1;newEdgeStyle={&quot;edgeStyle&quot;:&quot;entityRelationEdgeStyle&quot;,&quot;startArrow&quot;:&quot;none&quot;,&quot;endArrow&quot;:&quot;none&quot;,&quot;segment&quot;:10,&quot;curved&quot;:1,&quot;sourcePerimeterSpacing&quot;:0,&quot;targetPerimeterSpacing&quot;:0};fillColor=#e1d5e7;strokeColor=#9673a6;container=0;" parent="4T8DUvPG1SAxmXyFzRtK-12" vertex="1">
          <mxGeometry x="845" y="1345" width="60" height="30" as="geometry" />
        </mxCell>
        <mxCell id="4T8DUvPG1SAxmXyFzRtK-70" value="" style="edgeStyle=entityRelationEdgeStyle;startArrow=none;endArrow=none;segment=10;curved=1;sourcePerimeterSpacing=0;targetPerimeterSpacing=0;rounded=0;" parent="4T8DUvPG1SAxmXyFzRtK-12" source="4T8DUvPG1SAxmXyFzRtK-20" target="4T8DUvPG1SAxmXyFzRtK-71" edge="1">
          <mxGeometry relative="1" as="geometry">
            <mxPoint x="1756" y="2375" as="sourcePoint" />
          </mxGeometry>
        </mxCell>
        <mxCell id="4T8DUvPG1SAxmXyFzRtK-74" value="" style="edgeStyle=entityRelationEdgeStyle;startArrow=none;endArrow=none;segment=10;curved=1;sourcePerimeterSpacing=0;targetPerimeterSpacing=0;rounded=0;" parent="4T8DUvPG1SAxmXyFzRtK-12" source="4T8DUvPG1SAxmXyFzRtK-71" target="4T8DUvPG1SAxmXyFzRtK-75" edge="1">
          <mxGeometry relative="1" as="geometry">
            <mxPoint x="1615" y="2375" as="sourcePoint" />
          </mxGeometry>
        </mxCell>
        <mxCell id="4T8DUvPG1SAxmXyFzRtK-17" value="Boiling Test" style="ellipse;whiteSpace=wrap;html=1;align=center;treeFolding=1;treeMoving=1;newEdgeStyle={&quot;edgeStyle&quot;:&quot;entityRelationEdgeStyle&quot;,&quot;startArrow&quot;:&quot;none&quot;,&quot;endArrow&quot;:&quot;none&quot;,&quot;segment&quot;:10,&quot;curved&quot;:1,&quot;sourcePerimeterSpacing&quot;:0,&quot;targetPerimeterSpacing&quot;:0};fillColor=#e3c800;strokeColor=#B09500;fontColor=#000000;container=0;" parent="4T8DUvPG1SAxmXyFzRtK-12" vertex="1">
          <mxGeometry x="1115" y="1340" width="100" height="40" as="geometry" />
        </mxCell>
        <mxCell id="4T8DUvPG1SAxmXyFzRtK-18" value="Methods" style="whiteSpace=wrap;html=1;rounded=1;arcSize=50;align=center;verticalAlign=middle;strokeWidth=1;autosize=1;spacing=4;treeFolding=1;treeMoving=1;newEdgeStyle={&quot;edgeStyle&quot;:&quot;entityRelationEdgeStyle&quot;,&quot;startArrow&quot;:&quot;none&quot;,&quot;endArrow&quot;:&quot;none&quot;,&quot;segment&quot;:10,&quot;curved&quot;:1,&quot;sourcePerimeterSpacing&quot;:0,&quot;targetPerimeterSpacing&quot;:0};fillColor=#d5e8d4;strokeColor=#82b366;container=0;" parent="4T8DUvPG1SAxmXyFzRtK-12" vertex="1">
          <mxGeometry x="1264" y="1345" width="90" height="30" as="geometry" />
        </mxCell>
        <mxCell id="4T8DUvPG1SAxmXyFzRtK-13" value="" style="edgeStyle=entityRelationEdgeStyle;startArrow=none;endArrow=none;segment=10;curved=1;sourcePerimeterSpacing=0;targetPerimeterSpacing=0;rounded=0;" parent="4T8DUvPG1SAxmXyFzRtK-12" source="4T8DUvPG1SAxmXyFzRtK-17" target="4T8DUvPG1SAxmXyFzRtK-18" edge="1">
          <mxGeometry relative="1" as="geometry" />
        </mxCell>
        <mxCell id="4T8DUvPG1SAxmXyFzRtK-20" value="Visualization" style="whiteSpace=wrap;html=1;rounded=1;arcSize=50;align=center;verticalAlign=middle;strokeWidth=1;autosize=1;spacing=4;treeFolding=1;treeMoving=1;newEdgeStyle={&quot;edgeStyle&quot;:&quot;entityRelationEdgeStyle&quot;,&quot;startArrow&quot;:&quot;none&quot;,&quot;endArrow&quot;:&quot;none&quot;,&quot;segment&quot;:10,&quot;curved&quot;:1,&quot;sourcePerimeterSpacing&quot;:0,&quot;targetPerimeterSpacing&quot;:0};fillColor=#e1d5e7;strokeColor=#9673a6;container=0;" parent="4T8DUvPG1SAxmXyFzRtK-12" vertex="1">
          <mxGeometry x="974" y="1345" width="110" height="30" as="geometry" />
        </mxCell>
        <mxCell id="4T8DUvPG1SAxmXyFzRtK-15" value="" style="edgeStyle=entityRelationEdgeStyle;startArrow=none;endArrow=none;segment=10;curved=1;sourcePerimeterSpacing=0;targetPerimeterSpacing=0;rounded=0;" parent="4T8DUvPG1SAxmXyFzRtK-12" source="4T8DUvPG1SAxmXyFzRtK-17" target="4T8DUvPG1SAxmXyFzRtK-20" edge="1">
          <mxGeometry relative="1" as="geometry" />
        </mxCell>
        <mxCell id="4T8DUvPG1SAxmXyFzRtK-22" value="" style="edgeStyle=entityRelationEdgeStyle;startArrow=none;endArrow=none;segment=10;curved=1;sourcePerimeterSpacing=0;targetPerimeterSpacing=0;rounded=0;" parent="4T8DUvPG1SAxmXyFzRtK-12" source="4T8DUvPG1SAxmXyFzRtK-18" target="4T8DUvPG1SAxmXyFzRtK-23" edge="1">
          <mxGeometry relative="1" as="geometry">
            <mxPoint x="1855" y="2380" as="sourcePoint" />
          </mxGeometry>
        </mxCell>
        <mxCell id="4T8DUvPG1SAxmXyFzRtK-23" value="Latency" style="whiteSpace=wrap;html=1;rounded=1;arcSize=50;align=center;verticalAlign=middle;strokeWidth=1;autosize=1;spacing=4;treeFolding=1;treeMoving=1;newEdgeStyle={&quot;edgeStyle&quot;:&quot;entityRelationEdgeStyle&quot;,&quot;startArrow&quot;:&quot;none&quot;,&quot;endArrow&quot;:&quot;none&quot;,&quot;segment&quot;:10,&quot;curved&quot;:1,&quot;sourcePerimeterSpacing&quot;:0,&quot;targetPerimeterSpacing&quot;:0};fillColor=#d5e8d4;strokeColor=#82b366;container=0;" parent="4T8DUvPG1SAxmXyFzRtK-12" vertex="1">
          <mxGeometry x="1400" y="1315" width="90" height="30" as="geometry" />
        </mxCell>
        <mxCell id="4T8DUvPG1SAxmXyFzRtK-24" value="" style="edgeStyle=entityRelationEdgeStyle;startArrow=none;endArrow=none;segment=10;curved=1;sourcePerimeterSpacing=0;targetPerimeterSpacing=0;rounded=0;" parent="4T8DUvPG1SAxmXyFzRtK-12" source="4T8DUvPG1SAxmXyFzRtK-18" target="4T8DUvPG1SAxmXyFzRtK-25" edge="1">
          <mxGeometry relative="1" as="geometry">
            <mxPoint x="1855" y="2380" as="sourcePoint" />
          </mxGeometry>
        </mxCell>
        <mxCell id="4T8DUvPG1SAxmXyFzRtK-25" value="Jitter" style="whiteSpace=wrap;html=1;rounded=1;arcSize=50;align=center;verticalAlign=middle;strokeWidth=1;autosize=1;spacing=4;treeFolding=1;treeMoving=1;newEdgeStyle={&quot;edgeStyle&quot;:&quot;entityRelationEdgeStyle&quot;,&quot;startArrow&quot;:&quot;none&quot;,&quot;endArrow&quot;:&quot;none&quot;,&quot;segment&quot;:10,&quot;curved&quot;:1,&quot;sourcePerimeterSpacing&quot;:0,&quot;targetPerimeterSpacing&quot;:0};fillColor=#d5e8d4;strokeColor=#82b366;container=0;" parent="4T8DUvPG1SAxmXyFzRtK-12" vertex="1">
          <mxGeometry x="1400" y="1360" width="70" height="30" as="geometry" />
        </mxCell>
        <mxCell id="4T8DUvPG1SAxmXyFzRtK-26" value="" style="edgeStyle=entityRelationEdgeStyle;startArrow=none;endArrow=none;segment=10;curved=1;sourcePerimeterSpacing=0;targetPerimeterSpacing=0;rounded=0;" parent="4T8DUvPG1SAxmXyFzRtK-12" source="4T8DUvPG1SAxmXyFzRtK-18" target="4T8DUvPG1SAxmXyFzRtK-27" edge="1">
          <mxGeometry relative="1" as="geometry">
            <mxPoint x="1855" y="2380" as="sourcePoint" />
          </mxGeometry>
        </mxCell>
        <mxCell id="4T8DUvPG1SAxmXyFzRtK-27" value="MOS" style="whiteSpace=wrap;html=1;rounded=1;arcSize=50;align=center;verticalAlign=middle;strokeWidth=1;autosize=1;spacing=4;treeFolding=1;treeMoving=1;newEdgeStyle={&quot;edgeStyle&quot;:&quot;entityRelationEdgeStyle&quot;,&quot;startArrow&quot;:&quot;none&quot;,&quot;endArrow&quot;:&quot;none&quot;,&quot;segment&quot;:10,&quot;curved&quot;:1,&quot;sourcePerimeterSpacing&quot;:0,&quot;targetPerimeterSpacing&quot;:0};fillColor=#d5e8d4;strokeColor=#82b366;container=0;" parent="4T8DUvPG1SAxmXyFzRtK-12" vertex="1">
          <mxGeometry x="1400" y="1400" width="70" height="30" as="geometry" />
        </mxCell>
        <mxCell id="4T8DUvPG1SAxmXyFzRtK-246" value="" style="edgeStyle=entityRelationEdgeStyle;rounded=0;orthogonalLoop=1;jettySize=auto;html=1;startArrow=none;endArrow=none;segment=10;curved=1;sourcePerimeterSpacing=0;targetPerimeterSpacing=0;" parent="4T8DUvPG1SAxmXyFzRtK-12" source="4T8DUvPG1SAxmXyFzRtK-18" target="4T8DUvPG1SAxmXyFzRtK-27" edge="1">
          <mxGeometry relative="1" as="geometry" />
        </mxCell>
        <mxCell id="4T8DUvPG1SAxmXyFzRtK-28" value="" style="edgeStyle=entityRelationEdgeStyle;startArrow=none;endArrow=none;segment=10;curved=1;sourcePerimeterSpacing=0;targetPerimeterSpacing=0;rounded=0;" parent="4T8DUvPG1SAxmXyFzRtK-12" source="4T8DUvPG1SAxmXyFzRtK-18" target="4T8DUvPG1SAxmXyFzRtK-29" edge="1">
          <mxGeometry relative="1" as="geometry">
            <mxPoint x="1855" y="2380" as="sourcePoint" />
          </mxGeometry>
        </mxCell>
        <mxCell id="4T8DUvPG1SAxmXyFzRtK-29" value="Speed" style="whiteSpace=wrap;html=1;rounded=1;arcSize=50;align=center;verticalAlign=middle;strokeWidth=1;autosize=1;spacing=4;treeFolding=1;treeMoving=1;newEdgeStyle={&quot;edgeStyle&quot;:&quot;entityRelationEdgeStyle&quot;,&quot;startArrow&quot;:&quot;none&quot;,&quot;endArrow&quot;:&quot;none&quot;,&quot;segment&quot;:10,&quot;curved&quot;:1,&quot;sourcePerimeterSpacing&quot;:0,&quot;targetPerimeterSpacing&quot;:0};fillColor=#d5e8d4;strokeColor=#82b366;container=0;" parent="4T8DUvPG1SAxmXyFzRtK-12" vertex="1">
          <mxGeometry x="1400" y="1440" width="80" height="30" as="geometry" />
        </mxCell>
        <mxCell id="4T8DUvPG1SAxmXyFzRtK-39" value="Download" style="whiteSpace=wrap;html=1;rounded=1;arcSize=50;align=center;verticalAlign=middle;strokeWidth=1;autosize=1;spacing=4;treeFolding=1;treeMoving=1;newEdgeStyle={&quot;edgeStyle&quot;:&quot;entityRelationEdgeStyle&quot;,&quot;startArrow&quot;:&quot;none&quot;,&quot;endArrow&quot;:&quot;none&quot;,&quot;segment&quot;:10,&quot;curved&quot;:1,&quot;sourcePerimeterSpacing&quot;:0,&quot;targetPerimeterSpacing&quot;:0};container=0;" parent="4T8DUvPG1SAxmXyFzRtK-12" vertex="1">
          <mxGeometry x="1639.25" y="1412.5" width="100" height="30" as="geometry" />
        </mxCell>
        <mxCell id="4T8DUvPG1SAxmXyFzRtK-40" value="" style="edgeStyle=entityRelationEdgeStyle;startArrow=none;endArrow=none;segment=10;curved=1;sourcePerimeterSpacing=0;targetPerimeterSpacing=0;rounded=0;" parent="4T8DUvPG1SAxmXyFzRtK-12" source="4T8DUvPG1SAxmXyFzRtK-29" target="4T8DUvPG1SAxmXyFzRtK-41" edge="1">
          <mxGeometry relative="1" as="geometry">
            <mxPoint x="2000" y="2350" as="sourcePoint" />
          </mxGeometry>
        </mxCell>
        <mxCell id="4T8DUvPG1SAxmXyFzRtK-41" value="Classic" style="whiteSpace=wrap;html=1;rounded=1;arcSize=50;align=center;verticalAlign=middle;strokeWidth=1;autosize=1;spacing=4;treeFolding=1;treeMoving=1;newEdgeStyle={&quot;edgeStyle&quot;:&quot;entityRelationEdgeStyle&quot;,&quot;startArrow&quot;:&quot;none&quot;,&quot;endArrow&quot;:&quot;none&quot;,&quot;segment&quot;:10,&quot;curved&quot;:1,&quot;sourcePerimeterSpacing&quot;:0,&quot;targetPerimeterSpacing&quot;:0};container=0;" parent="4T8DUvPG1SAxmXyFzRtK-12" vertex="1">
          <mxGeometry x="1529.25" y="1440" width="80" height="30" as="geometry" />
        </mxCell>
        <mxCell id="4T8DUvPG1SAxmXyFzRtK-38" value="" style="edgeStyle=entityRelationEdgeStyle;startArrow=none;endArrow=none;segment=10;curved=1;sourcePerimeterSpacing=0;targetPerimeterSpacing=0;rounded=0;exitX=1;exitY=0.5;exitDx=0;exitDy=0;" parent="4T8DUvPG1SAxmXyFzRtK-12" source="4T8DUvPG1SAxmXyFzRtK-41" target="4T8DUvPG1SAxmXyFzRtK-39" edge="1">
          <mxGeometry relative="1" as="geometry">
            <mxPoint x="2004.25" y="2275" as="sourcePoint" />
          </mxGeometry>
        </mxCell>
        <mxCell id="4T8DUvPG1SAxmXyFzRtK-37" value="Upload" style="whiteSpace=wrap;html=1;rounded=1;arcSize=50;align=center;verticalAlign=middle;strokeWidth=1;autosize=1;spacing=4;treeFolding=1;treeMoving=1;newEdgeStyle={&quot;edgeStyle&quot;:&quot;entityRelationEdgeStyle&quot;,&quot;startArrow&quot;:&quot;none&quot;,&quot;endArrow&quot;:&quot;none&quot;,&quot;segment&quot;:10,&quot;curved&quot;:1,&quot;sourcePerimeterSpacing&quot;:0,&quot;targetPerimeterSpacing&quot;:0};container=0;" parent="4T8DUvPG1SAxmXyFzRtK-12" vertex="1">
          <mxGeometry x="1639.25" y="1467.5" width="80" height="30" as="geometry" />
        </mxCell>
        <mxCell id="4T8DUvPG1SAxmXyFzRtK-36" value="" style="edgeStyle=entityRelationEdgeStyle;startArrow=none;endArrow=none;segment=10;curved=1;sourcePerimeterSpacing=0;targetPerimeterSpacing=0;rounded=0;exitX=1;exitY=0.5;exitDx=0;exitDy=0;" parent="4T8DUvPG1SAxmXyFzRtK-12" source="4T8DUvPG1SAxmXyFzRtK-41" target="4T8DUvPG1SAxmXyFzRtK-37" edge="1">
          <mxGeometry relative="1" as="geometry">
            <mxPoint x="2004.25" y="2275" as="sourcePoint" />
          </mxGeometry>
        </mxCell>
        <mxCell id="4T8DUvPG1SAxmXyFzRtK-57" value="" style="edgeStyle=entityRelationEdgeStyle;startArrow=none;endArrow=none;segment=10;curved=1;sourcePerimeterSpacing=0;targetPerimeterSpacing=0;rounded=0;entryX=0;entryY=0.5;entryDx=0;entryDy=0;" parent="4T8DUvPG1SAxmXyFzRtK-12" source="4T8DUvPG1SAxmXyFzRtK-18" target="4T8DUvPG1SAxmXyFzRtK-59" edge="1">
          <mxGeometry relative="1" as="geometry">
            <mxPoint x="1855" y="2380" as="sourcePoint" />
          </mxGeometry>
        </mxCell>
        <mxCell id="4T8DUvPG1SAxmXyFzRtK-59" value="anyhttp" style="whiteSpace=wrap;html=1;rounded=1;arcSize=50;align=center;verticalAlign=middle;strokeWidth=1;autosize=1;spacing=4;treeFolding=1;treeMoving=1;newEdgeStyle={&quot;edgeStyle&quot;:&quot;entityRelationEdgeStyle&quot;,&quot;startArrow&quot;:&quot;none&quot;,&quot;endArrow&quot;:&quot;none&quot;,&quot;segment&quot;:10,&quot;curved&quot;:1,&quot;sourcePerimeterSpacing&quot;:0,&quot;targetPerimeterSpacing&quot;:0};fillColor=#dae8fc;strokeColor=#6c8ebf;container=0;" parent="4T8DUvPG1SAxmXyFzRtK-12" vertex="1">
          <mxGeometry x="1405" y="1500" width="80" height="30" as="geometry" />
        </mxCell>
        <mxCell id="4T8DUvPG1SAxmXyFzRtK-60" value="" style="edgeStyle=entityRelationEdgeStyle;rounded=0;orthogonalLoop=1;jettySize=auto;html=1;startArrow=none;endArrow=none;segment=10;curved=1;sourcePerimeterSpacing=0;targetPerimeterSpacing=0;exitX=1;exitY=0.5;exitDx=0;exitDy=0;" parent="4T8DUvPG1SAxmXyFzRtK-12" source="4T8DUvPG1SAxmXyFzRtK-59" target="4T8DUvPG1SAxmXyFzRtK-62" edge="1">
          <mxGeometry relative="1" as="geometry" />
        </mxCell>
        <mxCell id="4T8DUvPG1SAxmXyFzRtK-62" value="get a download URL&lt;br&gt;then start test" style="shape=step;perimeter=stepPerimeter;whiteSpace=wrap;html=1;fixedSize=1;rounded=1;arcSize=50;strokeWidth=1;spacing=4;container=0;" parent="4T8DUvPG1SAxmXyFzRtK-12" vertex="1">
          <mxGeometry x="1514" y="1535" width="159" height="50" as="geometry" />
        </mxCell>
        <mxCell id="4T8DUvPG1SAxmXyFzRtK-65" value="if more than $size" style="rhombus;whiteSpace=wrap;html=1;rounded=1;arcSize=50;strokeWidth=1;spacing=4;container=0;" parent="4T8DUvPG1SAxmXyFzRtK-12" vertex="1">
          <mxGeometry x="1724" y="1507.5" width="90.5" height="105" as="geometry" />
        </mxCell>
        <mxCell id="4T8DUvPG1SAxmXyFzRtK-61" value="" style="edgeStyle=orthogonalEdgeStyle;rounded=0;orthogonalLoop=1;jettySize=auto;html=1;" parent="4T8DUvPG1SAxmXyFzRtK-12" source="4T8DUvPG1SAxmXyFzRtK-62" target="4T8DUvPG1SAxmXyFzRtK-65" edge="1">
          <mxGeometry relative="1" as="geometry" />
        </mxCell>
        <mxCell id="4T8DUvPG1SAxmXyFzRtK-63" value="" style="edgeStyle=orthogonalEdgeStyle;rounded=0;orthogonalLoop=1;jettySize=auto;html=1;" parent="4T8DUvPG1SAxmXyFzRtK-12" source="4T8DUvPG1SAxmXyFzRtK-65" target="4T8DUvPG1SAxmXyFzRtK-66" edge="1">
          <mxGeometry relative="1" as="geometry" />
        </mxCell>
        <mxCell id="4T8DUvPG1SAxmXyFzRtK-64" value="" style="edgeStyle=orthogonalEdgeStyle;rounded=0;orthogonalLoop=1;jettySize=auto;html=1;" parent="4T8DUvPG1SAxmXyFzRtK-12" source="4T8DUvPG1SAxmXyFzRtK-65" target="4T8DUvPG1SAxmXyFzRtK-67" edge="1">
          <mxGeometry relative="1" as="geometry" />
        </mxCell>
        <mxCell id="4T8DUvPG1SAxmXyFzRtK-75" value="boiling degree&lt;br&gt;0..n=100&lt;br&gt;also with colors" style="whiteSpace=wrap;html=1;rounded=1;arcSize=50;align=center;verticalAlign=middle;strokeWidth=1;autosize=1;spacing=4;treeFolding=1;treeMoving=1;newEdgeStyle={&quot;edgeStyle&quot;:&quot;entityRelationEdgeStyle&quot;,&quot;startArrow&quot;:&quot;none&quot;,&quot;endArrow&quot;:&quot;none&quot;,&quot;segment&quot;:10,&quot;curved&quot;:1,&quot;sourcePerimeterSpacing&quot;:0,&quot;targetPerimeterSpacing&quot;:0};fillColor=#e1d5e7;strokeColor=#9673a6;container=0;" parent="4T8DUvPG1SAxmXyFzRtK-12" vertex="1">
          <mxGeometry x="675" y="1330" width="130" height="60" as="geometry" />
        </mxCell>
        <mxCell id="4T8DUvPG1SAxmXyFzRtK-230" value="score? how?" style="shape=document;whiteSpace=wrap;html=1;boundedLbl=1;fillColor=#e1d5e7;strokeColor=#9673a6;rounded=1;arcSize=50;strokeWidth=1;spacing=4;container=0;" parent="4T8DUvPG1SAxmXyFzRtK-12" vertex="1">
          <mxGeometry x="480" y="1320" width="120" height="80" as="geometry" />
        </mxCell>
        <mxCell id="4T8DUvPG1SAxmXyFzRtK-231" value="" style="edgeStyle=entityRelationEdgeStyle;rounded=0;orthogonalLoop=1;jettySize=auto;html=1;startArrow=none;endArrow=none;segment=10;curved=1;sourcePerimeterSpacing=0;targetPerimeterSpacing=0;" parent="4T8DUvPG1SAxmXyFzRtK-12" source="4T8DUvPG1SAxmXyFzRtK-75" target="4T8DUvPG1SAxmXyFzRtK-230" edge="1">
          <mxGeometry relative="1" as="geometry" />
        </mxCell>
        <mxCell id="4T8DUvPG1SAxmXyFzRtK-251" value="" style="edgeStyle=entityRelationEdgeStyle;rounded=0;orthogonalLoop=1;jettySize=auto;html=1;startArrow=none;endArrow=none;segment=10;curved=1;sourcePerimeterSpacing=0;targetPerimeterSpacing=0;" parent="4T8DUvPG1SAxmXyFzRtK-12" source="4T8DUvPG1SAxmXyFzRtK-18" target="4T8DUvPG1SAxmXyFzRtK-250" edge="1">
          <mxGeometry relative="1" as="geometry" />
        </mxCell>
        <mxCell id="4T8DUvPG1SAxmXyFzRtK-232" value="we have some scores for these in some platforms like RIPE Atlas&lt;br&gt;where else?" style="shape=document;whiteSpace=wrap;html=1;boundedLbl=1;fillColor=#e1d5e7;strokeColor=#9673a6;rounded=1;arcSize=50;strokeWidth=1;spacing=4;container=0;" parent="4T8DUvPG1SAxmXyFzRtK-12" vertex="1">
          <mxGeometry x="830" y="1490" width="120" height="110" as="geometry" />
        </mxCell>
        <mxCell id="-m1sjGoERF0VKnWKnUgo-12" value="" style="edgeStyle=entityRelationEdgeStyle;rounded=0;orthogonalLoop=1;jettySize=auto;html=1;startArrow=none;endArrow=none;segment=10;curved=1;sourcePerimeterSpacing=0;targetPerimeterSpacing=0;" parent="4T8DUvPG1SAxmXyFzRtK-12" source="4T8DUvPG1SAxmXyFzRtK-250" target="4T8DUvPG1SAxmXyFzRtK-253" edge="1">
          <mxGeometry relative="1" as="geometry" />
        </mxCell>
        <mxCell id="4T8DUvPG1SAxmXyFzRtK-250" value="other platform&#39;s internal test" style="whiteSpace=wrap;html=1;rounded=1;arcSize=50;align=center;verticalAlign=middle;strokeWidth=1;autosize=1;spacing=4;treeFolding=1;treeMoving=1;newEdgeStyle={&quot;edgeStyle&quot;:&quot;entityRelationEdgeStyle&quot;,&quot;startArrow&quot;:&quot;none&quot;,&quot;endArrow&quot;:&quot;none&quot;,&quot;segment&quot;:10,&quot;curved&quot;:1,&quot;sourcePerimeterSpacing&quot;:0,&quot;targetPerimeterSpacing&quot;:0};fillColor=#dae8fc;strokeColor=#6c8ebf;container=0;" parent="4T8DUvPG1SAxmXyFzRtK-12" vertex="1">
          <mxGeometry x="1385" y="1660" width="190" height="30" as="geometry" />
        </mxCell>
        <mxCell id="4T8DUvPG1SAxmXyFzRtK-252" value="" style="edgeStyle=entityRelationEdgeStyle;rounded=0;orthogonalLoop=1;jettySize=auto;html=1;startArrow=none;endArrow=none;segment=10;curved=1;sourcePerimeterSpacing=0;targetPerimeterSpacing=0;" parent="4T8DUvPG1SAxmXyFzRtK-12" source="4T8DUvPG1SAxmXyFzRtK-250" target="4T8DUvPG1SAxmXyFzRtK-253" edge="1">
          <mxGeometry relative="1" as="geometry">
            <mxPoint x="1484" y="2340" as="sourcePoint" />
          </mxGeometry>
        </mxCell>
        <mxCell id="4T8DUvPG1SAxmXyFzRtK-253" value="PlayStation&lt;br&gt;connectivity test" style="whiteSpace=wrap;html=1;rounded=1;arcSize=50;align=center;verticalAlign=middle;strokeWidth=1;autosize=1;spacing=4;treeFolding=1;treeMoving=1;newEdgeStyle={&quot;edgeStyle&quot;:&quot;entityRelationEdgeStyle&quot;,&quot;startArrow&quot;:&quot;none&quot;,&quot;endArrow&quot;:&quot;none&quot;,&quot;segment&quot;:10,&quot;curved&quot;:1,&quot;sourcePerimeterSpacing&quot;:0,&quot;targetPerimeterSpacing&quot;:0};fillColor=#dae8fc;strokeColor=#6c8ebf;container=0;" parent="4T8DUvPG1SAxmXyFzRtK-12" vertex="1">
          <mxGeometry x="1635" y="1650" width="130" height="50" as="geometry" />
        </mxCell>
        <mxCell id="1eWwv-I8uEaylaqoxTNq-3" style="edgeStyle=orthogonalEdgeStyle;rounded=0;orthogonalLoop=1;jettySize=auto;html=1;exitX=1;exitY=0.5;exitDx=0;exitDy=0;entryX=0.5;entryY=0;entryDx=0;entryDy=0;" edge="1" parent="4T8DUvPG1SAxmXyFzRtK-12" source="4T8DUvPG1SAxmXyFzRtK-66" target="1eWwv-I8uEaylaqoxTNq-2">
          <mxGeometry relative="1" as="geometry" />
        </mxCell>
        <mxCell id="4T8DUvPG1SAxmXyFzRtK-66" value="test upload with&lt;br&gt;&amp;nbsp;the same size" style="shape=parallelogram;perimeter=parallelogramPerimeter;whiteSpace=wrap;html=1;fixedSize=1;rounded=1;arcSize=50;strokeWidth=1;spacing=4;container=0;" parent="4T8DUvPG1SAxmXyFzRtK-12" vertex="1">
          <mxGeometry x="1814.5" y="1400" width="120" height="60" as="geometry" />
        </mxCell>
        <mxCell id="4T8DUvPG1SAxmXyFzRtK-67" value="test upload with&lt;br&gt;&amp;nbsp;a default $size" style="shape=parallelogram;perimeter=parallelogramPerimeter;whiteSpace=wrap;html=1;fixedSize=1;rounded=1;arcSize=50;strokeWidth=1;spacing=4;container=0;" parent="4T8DUvPG1SAxmXyFzRtK-12" vertex="1">
          <mxGeometry x="1865" y="1530" width="120" height="60" as="geometry" />
        </mxCell>
        <mxCell id="4T8DUvPG1SAxmXyFzRtK-254" value="" style="edgeStyle=entityRelationEdgeStyle;rounded=0;orthogonalLoop=1;jettySize=auto;html=1;startArrow=none;endArrow=none;segment=10;curved=1;sourcePerimeterSpacing=0;targetPerimeterSpacing=0;" parent="4T8DUvPG1SAxmXyFzRtK-12" source="4T8DUvPG1SAxmXyFzRtK-250" target="4T8DUvPG1SAxmXyFzRtK-255" edge="1">
          <mxGeometry relative="1" as="geometry">
            <mxPoint x="1484" y="2340" as="sourcePoint" />
          </mxGeometry>
        </mxCell>
        <mxCell id="4T8DUvPG1SAxmXyFzRtK-257" value="" style="edgeStyle=entityRelationEdgeStyle;rounded=0;orthogonalLoop=1;jettySize=auto;html=1;startArrow=none;endArrow=none;segment=10;curved=1;sourcePerimeterSpacing=0;targetPerimeterSpacing=0;" parent="4T8DUvPG1SAxmXyFzRtK-12" source="4T8DUvPG1SAxmXyFzRtK-253" target="4T8DUvPG1SAxmXyFzRtK-258" edge="1">
          <mxGeometry relative="1" as="geometry">
            <mxPoint x="1705" y="2655" as="sourcePoint" />
          </mxGeometry>
        </mxCell>
        <mxCell id="4T8DUvPG1SAxmXyFzRtK-258" value="ping" style="whiteSpace=wrap;html=1;rounded=1;arcSize=50;align=center;verticalAlign=middle;strokeWidth=1;autosize=1;spacing=4;treeFolding=1;treeMoving=1;newEdgeStyle={&quot;edgeStyle&quot;:&quot;entityRelationEdgeStyle&quot;,&quot;startArrow&quot;:&quot;none&quot;,&quot;endArrow&quot;:&quot;none&quot;,&quot;segment&quot;:10,&quot;curved&quot;:1,&quot;sourcePerimeterSpacing&quot;:0,&quot;targetPerimeterSpacing&quot;:0};fillColor=#dae8fc;strokeColor=#6c8ebf;container=0;" parent="4T8DUvPG1SAxmXyFzRtK-12" vertex="1">
          <mxGeometry x="1815" y="1630" width="70" height="30" as="geometry" />
        </mxCell>
        <mxCell id="4T8DUvPG1SAxmXyFzRtK-259" value="" style="edgeStyle=entityRelationEdgeStyle;rounded=0;orthogonalLoop=1;jettySize=auto;html=1;startArrow=none;endArrow=none;segment=10;curved=1;sourcePerimeterSpacing=0;targetPerimeterSpacing=0;" parent="4T8DUvPG1SAxmXyFzRtK-12" source="4T8DUvPG1SAxmXyFzRtK-253" target="4T8DUvPG1SAxmXyFzRtK-260" edge="1">
          <mxGeometry relative="1" as="geometry">
            <mxPoint x="1705" y="2655" as="sourcePoint" />
          </mxGeometry>
        </mxCell>
        <mxCell id="7orX1qECXq71Z3kbrnXR-12" value="" style="edgeStyle=entityRelationEdgeStyle;rounded=0;orthogonalLoop=1;jettySize=auto;html=1;startArrow=none;endArrow=none;segment=10;curved=1;sourcePerimeterSpacing=0;targetPerimeterSpacing=0;" parent="4T8DUvPG1SAxmXyFzRtK-12" source="4T8DUvPG1SAxmXyFzRtK-260" target="7orX1qECXq71Z3kbrnXR-2" edge="1">
          <mxGeometry relative="1" as="geometry" />
        </mxCell>
        <mxCell id="7orX1qECXq71Z3kbrnXR-13" value="" style="edgeStyle=entityRelationEdgeStyle;rounded=0;orthogonalLoop=1;jettySize=auto;html=1;startArrow=none;endArrow=none;segment=10;curved=1;sourcePerimeterSpacing=0;targetPerimeterSpacing=0;" parent="4T8DUvPG1SAxmXyFzRtK-12" source="4T8DUvPG1SAxmXyFzRtK-260" target="7orX1qECXq71Z3kbrnXR-2" edge="1">
          <mxGeometry relative="1" as="geometry" />
        </mxCell>
        <mxCell id="4T8DUvPG1SAxmXyFzRtK-260" value="speed" style="whiteSpace=wrap;html=1;rounded=1;arcSize=50;align=center;verticalAlign=middle;strokeWidth=1;autosize=1;spacing=4;treeFolding=1;treeMoving=1;newEdgeStyle={&quot;edgeStyle&quot;:&quot;entityRelationEdgeStyle&quot;,&quot;startArrow&quot;:&quot;none&quot;,&quot;endArrow&quot;:&quot;none&quot;,&quot;segment&quot;:10,&quot;curved&quot;:1,&quot;sourcePerimeterSpacing&quot;:0,&quot;targetPerimeterSpacing&quot;:0};fillColor=#dae8fc;strokeColor=#6c8ebf;container=0;" parent="4T8DUvPG1SAxmXyFzRtK-12" vertex="1">
          <mxGeometry x="1815" y="1680" width="80" height="30" as="geometry" />
        </mxCell>
        <mxCell id="4T8DUvPG1SAxmXyFzRtK-249" value="" style="edgeStyle=entityRelationEdgeStyle;rounded=0;orthogonalLoop=1;jettySize=auto;html=1;startArrow=none;endArrow=none;segment=10;curved=1;sourcePerimeterSpacing=0;targetPerimeterSpacing=0;" parent="4T8DUvPG1SAxmXyFzRtK-12" source="4T8DUvPG1SAxmXyFzRtK-18" target="4T8DUvPG1SAxmXyFzRtK-27" edge="1">
          <mxGeometry relative="1" as="geometry" />
        </mxCell>
        <mxCell id="4T8DUvPG1SAxmXyFzRtK-233" value="" style="edgeStyle=entityRelationEdgeStyle;rounded=0;orthogonalLoop=1;jettySize=auto;html=1;startArrow=none;endArrow=none;segment=10;curved=1;sourcePerimeterSpacing=0;targetPerimeterSpacing=0;exitX=0.5;exitY=1;exitDx=0;exitDy=0;entryX=0.5;entryY=0;entryDx=0;entryDy=0;" parent="4T8DUvPG1SAxmXyFzRtK-12" source="4T8DUvPG1SAxmXyFzRtK-73" target="4T8DUvPG1SAxmXyFzRtK-232" edge="1">
          <mxGeometry relative="1" as="geometry" />
        </mxCell>
        <mxCell id="7orX1qECXq71Z3kbrnXR-3" value="" style="edgeStyle=entityRelationEdgeStyle;rounded=0;orthogonalLoop=1;jettySize=auto;html=1;startArrow=none;endArrow=none;segment=10;curved=1;sourcePerimeterSpacing=0;targetPerimeterSpacing=0;" parent="4T8DUvPG1SAxmXyFzRtK-12" source="4T8DUvPG1SAxmXyFzRtK-260" target="7orX1qECXq71Z3kbrnXR-2" edge="1">
          <mxGeometry relative="1" as="geometry" />
        </mxCell>
        <mxCell id="7orX1qECXq71Z3kbrnXR-4" value="" style="edgeStyle=entityRelationEdgeStyle;rounded=0;orthogonalLoop=1;jettySize=auto;html=1;startArrow=none;endArrow=none;segment=10;curved=1;sourcePerimeterSpacing=0;targetPerimeterSpacing=0;" parent="4T8DUvPG1SAxmXyFzRtK-12" source="4T8DUvPG1SAxmXyFzRtK-260" target="7orX1qECXq71Z3kbrnXR-2" edge="1">
          <mxGeometry relative="1" as="geometry" />
        </mxCell>
        <mxCell id="7orX1qECXq71Z3kbrnXR-2" value="download" style="whiteSpace=wrap;html=1;rounded=1;arcSize=50;align=center;verticalAlign=middle;strokeWidth=1;autosize=1;spacing=4;treeFolding=1;treeMoving=1;newEdgeStyle={&quot;edgeStyle&quot;:&quot;entityRelationEdgeStyle&quot;,&quot;startArrow&quot;:&quot;none&quot;,&quot;endArrow&quot;:&quot;none&quot;,&quot;segment&quot;:10,&quot;curved&quot;:1,&quot;sourcePerimeterSpacing&quot;:0,&quot;targetPerimeterSpacing&quot;:0};fillColor=#dae8fc;strokeColor=#6c8ebf;container=0;" parent="4T8DUvPG1SAxmXyFzRtK-12" vertex="1">
          <mxGeometry x="1934.5" y="1650" width="100" height="30" as="geometry" />
        </mxCell>
        <mxCell id="7orX1qECXq71Z3kbrnXR-15" value="" style="edgeStyle=entityRelationEdgeStyle;rounded=0;orthogonalLoop=1;jettySize=auto;html=1;startArrow=none;endArrow=none;segment=10;curved=1;sourcePerimeterSpacing=0;targetPerimeterSpacing=0;" parent="4T8DUvPG1SAxmXyFzRtK-12" source="4T8DUvPG1SAxmXyFzRtK-260" target="7orX1qECXq71Z3kbrnXR-14" edge="1">
          <mxGeometry relative="1" as="geometry" />
        </mxCell>
        <mxCell id="-m1sjGoERF0VKnWKnUgo-13" value="" style="edgeStyle=entityRelationEdgeStyle;rounded=0;orthogonalLoop=1;jettySize=auto;html=1;startArrow=none;endArrow=none;segment=10;curved=1;sourcePerimeterSpacing=0;targetPerimeterSpacing=0;" parent="4T8DUvPG1SAxmXyFzRtK-12" source="4T8DUvPG1SAxmXyFzRtK-250" target="-m1sjGoERF0VKnWKnUgo-14" edge="1">
          <mxGeometry relative="1" as="geometry">
            <mxPoint x="1715" y="2625" as="sourcePoint" />
          </mxGeometry>
        </mxCell>
        <mxCell id="7orX1qECXq71Z3kbrnXR-14" value="upload" style="whiteSpace=wrap;html=1;rounded=1;arcSize=50;align=center;verticalAlign=middle;strokeWidth=1;autosize=1;spacing=4;treeFolding=1;treeMoving=1;newEdgeStyle={&quot;edgeStyle&quot;:&quot;entityRelationEdgeStyle&quot;,&quot;startArrow&quot;:&quot;none&quot;,&quot;endArrow&quot;:&quot;none&quot;,&quot;segment&quot;:10,&quot;curved&quot;:1,&quot;sourcePerimeterSpacing&quot;:0,&quot;targetPerimeterSpacing&quot;:0};fillColor=#dae8fc;strokeColor=#6c8ebf;container=0;" parent="4T8DUvPG1SAxmXyFzRtK-12" vertex="1">
          <mxGeometry x="1935" y="1710" width="80" height="30" as="geometry" />
        </mxCell>
        <mxCell id="4T8DUvPG1SAxmXyFzRtK-255" value="AWS EC2&lt;br&gt;Reachability Test" style="whiteSpace=wrap;html=1;rounded=1;arcSize=50;align=center;verticalAlign=middle;strokeWidth=1;autosize=1;spacing=4;treeFolding=1;treeMoving=1;newEdgeStyle={&quot;edgeStyle&quot;:&quot;entityRelationEdgeStyle&quot;,&quot;startArrow&quot;:&quot;none&quot;,&quot;endArrow&quot;:&quot;none&quot;,&quot;segment&quot;:10,&quot;curved&quot;:1,&quot;sourcePerimeterSpacing&quot;:0,&quot;targetPerimeterSpacing&quot;:0};fillColor=#dae8fc;strokeColor=#6c8ebf;container=0;" parent="4T8DUvPG1SAxmXyFzRtK-12" vertex="1">
          <mxGeometry x="1630" y="1770" width="140" height="50" as="geometry" />
        </mxCell>
        <mxCell id="-m1sjGoERF0VKnWKnUgo-10" value="" style="edgeStyle=entityRelationEdgeStyle;rounded=0;orthogonalLoop=1;jettySize=auto;html=1;startArrow=none;endArrow=none;segment=10;curved=1;sourcePerimeterSpacing=0;targetPerimeterSpacing=0;" parent="4T8DUvPG1SAxmXyFzRtK-12" source="4T8DUvPG1SAxmXyFzRtK-255" target="-m1sjGoERF0VKnWKnUgo-11" edge="1">
          <mxGeometry relative="1" as="geometry">
            <mxPoint x="1715" y="2625" as="sourcePoint" />
          </mxGeometry>
        </mxCell>
        <mxCell id="-m1sjGoERF0VKnWKnUgo-11" value="HTTP" style="whiteSpace=wrap;html=1;rounded=1;arcSize=50;align=center;verticalAlign=middle;strokeWidth=1;autosize=1;spacing=4;treeFolding=1;treeMoving=1;newEdgeStyle={&quot;edgeStyle&quot;:&quot;entityRelationEdgeStyle&quot;,&quot;startArrow&quot;:&quot;none&quot;,&quot;endArrow&quot;:&quot;none&quot;,&quot;segment&quot;:10,&quot;curved&quot;:1,&quot;sourcePerimeterSpacing&quot;:0,&quot;targetPerimeterSpacing&quot;:0};fillColor=#dae8fc;strokeColor=#6c8ebf;container=0;" parent="4T8DUvPG1SAxmXyFzRtK-12" vertex="1">
          <mxGeometry x="1825" y="1760" width="80" height="30" as="geometry" />
        </mxCell>
        <mxCell id="-m1sjGoERF0VKnWKnUgo-14" value="elsewhere?" style="whiteSpace=wrap;html=1;rounded=1;arcSize=50;align=center;verticalAlign=middle;strokeWidth=1;autosize=1;spacing=4;treeFolding=1;treeMoving=1;newEdgeStyle={&quot;edgeStyle&quot;:&quot;entityRelationEdgeStyle&quot;,&quot;startArrow&quot;:&quot;none&quot;,&quot;endArrow&quot;:&quot;none&quot;,&quot;segment&quot;:10,&quot;curved&quot;:1,&quot;sourcePerimeterSpacing&quot;:0,&quot;targetPerimeterSpacing&quot;:0};fillColor=#dae8fc;strokeColor=#6c8ebf;container=0;" parent="4T8DUvPG1SAxmXyFzRtK-12" vertex="1">
          <mxGeometry x="1635" y="1880" width="110" height="30" as="geometry" />
        </mxCell>
        <mxCell id="-m1sjGoERF0VKnWKnUgo-15" value="" style="edgeStyle=entityRelationEdgeStyle;rounded=0;orthogonalLoop=1;jettySize=auto;html=1;startArrow=none;endArrow=none;segment=10;curved=1;sourcePerimeterSpacing=0;targetPerimeterSpacing=0;" parent="4T8DUvPG1SAxmXyFzRtK-12" source="4T8DUvPG1SAxmXyFzRtK-255" target="-m1sjGoERF0VKnWKnUgo-16" edge="1">
          <mxGeometry relative="1" as="geometry">
            <mxPoint x="1715" y="2625" as="sourcePoint" />
          </mxGeometry>
        </mxCell>
        <mxCell id="-m1sjGoERF0VKnWKnUgo-16" value="HTTPS?" style="whiteSpace=wrap;html=1;rounded=1;arcSize=50;align=center;verticalAlign=middle;strokeWidth=1;autosize=1;spacing=4;treeFolding=1;treeMoving=1;newEdgeStyle={&quot;edgeStyle&quot;:&quot;entityRelationEdgeStyle&quot;,&quot;startArrow&quot;:&quot;none&quot;,&quot;endArrow&quot;:&quot;none&quot;,&quot;segment&quot;:10,&quot;curved&quot;:1,&quot;sourcePerimeterSpacing&quot;:0,&quot;targetPerimeterSpacing&quot;:0};fillColor=#dae8fc;strokeColor=#6c8ebf;container=0;" parent="4T8DUvPG1SAxmXyFzRtK-12" vertex="1">
          <mxGeometry x="1820" y="1820" width="90" height="30" as="geometry" />
        </mxCell>
        <mxCell id="1eWwv-I8uEaylaqoxTNq-1" value="" style="edgeStyle=orthogonalEdgeStyle;rounded=0;orthogonalLoop=1;jettySize=auto;html=1;" edge="1" target="1eWwv-I8uEaylaqoxTNq-2" source="4T8DUvPG1SAxmXyFzRtK-67" parent="4T8DUvPG1SAxmXyFzRtK-12">
          <mxGeometry relative="1" as="geometry">
            <mxPoint x="2385" y="3490" as="sourcePoint" />
          </mxGeometry>
        </mxCell>
        <mxCell id="1eWwv-I8uEaylaqoxTNq-2" value="compare upstream&lt;br&gt;&amp;nbsp;and downstream" style="shape=parallelogram;perimeter=parallelogramPerimeter;whiteSpace=wrap;html=1;fixedSize=1;rounded=1;arcSize=38;strokeWidth=1;spacing=4;container=0;size=-10;" vertex="1" parent="4T8DUvPG1SAxmXyFzRtK-12">
          <mxGeometry x="2010" y="1530" width="135" height="60" as="geometry" />
        </mxCell>
        <mxCell id="1eWwv-I8uEaylaqoxTNq-15" value="Knowledge" style="whiteSpace=wrap;html=1;rounded=1;arcSize=50;align=center;verticalAlign=middle;strokeWidth=1;autosize=1;spacing=4;treeFolding=1;treeMoving=1;newEdgeStyle={&quot;edgeStyle&quot;:&quot;entityRelationEdgeStyle&quot;,&quot;startArrow&quot;:&quot;none&quot;,&quot;endArrow&quot;:&quot;none&quot;,&quot;segment&quot;:10,&quot;curved&quot;:1,&quot;sourcePerimeterSpacing&quot;:0,&quot;targetPerimeterSpacing&quot;:0};fillColor=#b1ddf0;container=0;strokeColor=#10739e;" vertex="1" parent="4T8DUvPG1SAxmXyFzRtK-12">
          <mxGeometry x="984" y="1220" width="100" height="30" as="geometry" />
        </mxCell>
        <mxCell id="1eWwv-I8uEaylaqoxTNq-14" value="" style="edgeStyle=entityRelationEdgeStyle;startArrow=none;endArrow=none;segment=10;curved=1;sourcePerimeterSpacing=0;targetPerimeterSpacing=0;rounded=0;" edge="1" target="1eWwv-I8uEaylaqoxTNq-15" source="4T8DUvPG1SAxmXyFzRtK-17" parent="4T8DUvPG1SAxmXyFzRtK-12">
          <mxGeometry relative="1" as="geometry">
            <mxPoint x="1855" y="3412.5" as="sourcePoint" />
          </mxGeometry>
        </mxCell>
        <mxCell id="1eWwv-I8uEaylaqoxTNq-116" style="edgeStyle=entityRelationEdgeStyle;rounded=0;orthogonalLoop=1;jettySize=auto;html=1;startArrow=none;endArrow=none;segment=10;curved=1;sourcePerimeterSpacing=0;targetPerimeterSpacing=0;entryX=1;entryY=0.5;entryDx=0;entryDy=0;" edge="1" parent="4T8DUvPG1SAxmXyFzRtK-12" source="1eWwv-I8uEaylaqoxTNq-30" target="1eWwv-I8uEaylaqoxTNq-99">
          <mxGeometry relative="1" as="geometry" />
        </mxCell>
        <mxCell id="1eWwv-I8uEaylaqoxTNq-152" style="edgeStyle=entityRelationEdgeStyle;rounded=0;orthogonalLoop=1;jettySize=auto;html=1;startArrow=none;endArrow=none;segment=10;curved=1;sourcePerimeterSpacing=0;targetPerimeterSpacing=0;entryX=1;entryY=0.5;entryDx=0;entryDy=0;" edge="1" parent="4T8DUvPG1SAxmXyFzRtK-12" source="1eWwv-I8uEaylaqoxTNq-30" target="1eWwv-I8uEaylaqoxTNq-129">
          <mxGeometry relative="1" as="geometry" />
        </mxCell>
        <mxCell id="1eWwv-I8uEaylaqoxTNq-30" value="requirements" style="whiteSpace=wrap;html=1;rounded=1;arcSize=50;align=center;verticalAlign=middle;strokeWidth=1;autosize=1;spacing=4;treeFolding=1;treeMoving=1;newEdgeStyle={&quot;edgeStyle&quot;:&quot;entityRelationEdgeStyle&quot;,&quot;startArrow&quot;:&quot;none&quot;,&quot;endArrow&quot;:&quot;none&quot;,&quot;segment&quot;:10,&quot;curved&quot;:1,&quot;sourcePerimeterSpacing&quot;:0,&quot;targetPerimeterSpacing&quot;:0};fillColor=#b0e3e6;strokeColor=#0e8088;container=0;" vertex="1" parent="4T8DUvPG1SAxmXyFzRtK-12">
          <mxGeometry x="830" y="770" width="110" height="30" as="geometry" />
        </mxCell>
        <mxCell id="1eWwv-I8uEaylaqoxTNq-31" value="" style="edgeStyle=entityRelationEdgeStyle;rounded=0;orthogonalLoop=1;jettySize=auto;html=1;startArrow=none;endArrow=none;segment=10;curved=1;sourcePerimeterSpacing=0;targetPerimeterSpacing=0;" edge="1" parent="4T8DUvPG1SAxmXyFzRtK-12" source="1eWwv-I8uEaylaqoxTNq-15" target="1eWwv-I8uEaylaqoxTNq-30">
          <mxGeometry relative="1" as="geometry" />
        </mxCell>
        <mxCell id="1eWwv-I8uEaylaqoxTNq-32" value="mobile cloud gaming" style="whiteSpace=wrap;html=1;rounded=1;arcSize=50;align=center;verticalAlign=middle;strokeWidth=1;autosize=1;spacing=4;treeFolding=1;treeMoving=1;newEdgeStyle={&quot;edgeStyle&quot;:&quot;entityRelationEdgeStyle&quot;,&quot;startArrow&quot;:&quot;none&quot;,&quot;endArrow&quot;:&quot;none&quot;,&quot;segment&quot;:10,&quot;curved&quot;:1,&quot;sourcePerimeterSpacing&quot;:0,&quot;targetPerimeterSpacing&quot;:0};fillColor=#b0e3e6;strokeColor=#0e8088;container=0;" vertex="1" parent="4T8DUvPG1SAxmXyFzRtK-12">
          <mxGeometry x="590" y="1085" width="150" height="40" as="geometry" />
        </mxCell>
        <mxCell id="1eWwv-I8uEaylaqoxTNq-33" value="" style="edgeStyle=entityRelationEdgeStyle;rounded=0;orthogonalLoop=1;jettySize=auto;html=1;startArrow=none;endArrow=none;segment=10;curved=1;sourcePerimeterSpacing=0;targetPerimeterSpacing=0;" edge="1" parent="4T8DUvPG1SAxmXyFzRtK-12" source="1eWwv-I8uEaylaqoxTNq-30" target="1eWwv-I8uEaylaqoxTNq-32">
          <mxGeometry relative="1" as="geometry" />
        </mxCell>
        <mxCell id="1eWwv-I8uEaylaqoxTNq-128" style="edgeStyle=entityRelationEdgeStyle;rounded=0;orthogonalLoop=1;jettySize=auto;html=1;startArrow=none;endArrow=none;segment=10;curved=1;sourcePerimeterSpacing=0;targetPerimeterSpacing=0;entryX=1;entryY=0.5;entryDx=0;entryDy=0;" edge="1" parent="4T8DUvPG1SAxmXyFzRtK-12" source="1eWwv-I8uEaylaqoxTNq-34" target="1eWwv-I8uEaylaqoxTNq-125">
          <mxGeometry relative="1" as="geometry" />
        </mxCell>
        <mxCell id="1eWwv-I8uEaylaqoxTNq-34" value="Xbox Game Pass" style="whiteSpace=wrap;html=1;rounded=1;arcSize=50;align=center;verticalAlign=middle;strokeWidth=1;autosize=1;spacing=4;treeFolding=1;treeMoving=1;newEdgeStyle={&quot;edgeStyle&quot;:&quot;entityRelationEdgeStyle&quot;,&quot;startArrow&quot;:&quot;none&quot;,&quot;endArrow&quot;:&quot;none&quot;,&quot;segment&quot;:10,&quot;curved&quot;:1,&quot;sourcePerimeterSpacing&quot;:0,&quot;targetPerimeterSpacing&quot;:0};fillColor=#b0e3e6;strokeColor=#0e8088;container=0;" vertex="1" parent="4T8DUvPG1SAxmXyFzRtK-12">
          <mxGeometry x="420" y="1090" width="140" height="30" as="geometry" />
        </mxCell>
        <mxCell id="1eWwv-I8uEaylaqoxTNq-35" value="" style="edgeStyle=entityRelationEdgeStyle;rounded=0;orthogonalLoop=1;jettySize=auto;html=1;startArrow=none;endArrow=none;segment=10;curved=1;sourcePerimeterSpacing=0;targetPerimeterSpacing=0;" edge="1" parent="4T8DUvPG1SAxmXyFzRtK-12" source="1eWwv-I8uEaylaqoxTNq-32" target="1eWwv-I8uEaylaqoxTNq-34">
          <mxGeometry relative="1" as="geometry" />
        </mxCell>
        <mxCell id="1eWwv-I8uEaylaqoxTNq-36" value="downlink" style="whiteSpace=wrap;html=1;rounded=1;arcSize=50;align=center;verticalAlign=middle;strokeWidth=1;autosize=1;spacing=4;treeFolding=1;treeMoving=1;newEdgeStyle={&quot;edgeStyle&quot;:&quot;entityRelationEdgeStyle&quot;,&quot;startArrow&quot;:&quot;none&quot;,&quot;endArrow&quot;:&quot;none&quot;,&quot;segment&quot;:10,&quot;curved&quot;:1,&quot;sourcePerimeterSpacing&quot;:0,&quot;targetPerimeterSpacing&quot;:0};fillColor=#b0e3e6;strokeColor=#0e8088;container=0;" vertex="1" parent="4T8DUvPG1SAxmXyFzRtK-12">
          <mxGeometry x="290" y="1030" width="90" height="30" as="geometry" />
        </mxCell>
        <mxCell id="1eWwv-I8uEaylaqoxTNq-37" value="" style="edgeStyle=entityRelationEdgeStyle;rounded=0;orthogonalLoop=1;jettySize=auto;html=1;startArrow=none;endArrow=none;segment=10;curved=1;sourcePerimeterSpacing=0;targetPerimeterSpacing=0;" edge="1" parent="4T8DUvPG1SAxmXyFzRtK-12" source="1eWwv-I8uEaylaqoxTNq-34" target="1eWwv-I8uEaylaqoxTNq-36">
          <mxGeometry relative="1" as="geometry" />
        </mxCell>
        <mxCell id="1eWwv-I8uEaylaqoxTNq-38" value="" style="edgeStyle=entityRelationEdgeStyle;rounded=0;orthogonalLoop=1;jettySize=auto;html=1;startArrow=none;endArrow=none;segment=10;curved=1;sourcePerimeterSpacing=0;targetPerimeterSpacing=0;" edge="1" parent="4T8DUvPG1SAxmXyFzRtK-12" source="1eWwv-I8uEaylaqoxTNq-34" target="1eWwv-I8uEaylaqoxTNq-36">
          <mxGeometry relative="1" as="geometry" />
        </mxCell>
        <mxCell id="1eWwv-I8uEaylaqoxTNq-39" value="" style="edgeStyle=entityRelationEdgeStyle;rounded=0;orthogonalLoop=1;jettySize=auto;html=1;startArrow=none;endArrow=none;segment=10;curved=1;sourcePerimeterSpacing=0;targetPerimeterSpacing=0;" edge="1" parent="4T8DUvPG1SAxmXyFzRtK-12" source="1eWwv-I8uEaylaqoxTNq-34" target="1eWwv-I8uEaylaqoxTNq-36">
          <mxGeometry relative="1" as="geometry" />
        </mxCell>
        <mxCell id="1eWwv-I8uEaylaqoxTNq-44" value="" style="edgeStyle=entityRelationEdgeStyle;rounded=0;orthogonalLoop=1;jettySize=auto;html=1;startArrow=none;endArrow=none;segment=10;curved=1;sourcePerimeterSpacing=0;targetPerimeterSpacing=0;" edge="1" parent="4T8DUvPG1SAxmXyFzRtK-12" source="1eWwv-I8uEaylaqoxTNq-34" target="1eWwv-I8uEaylaqoxTNq-36">
          <mxGeometry relative="1" as="geometry" />
        </mxCell>
        <mxCell id="1eWwv-I8uEaylaqoxTNq-47" value="" style="edgeStyle=entityRelationEdgeStyle;rounded=0;orthogonalLoop=1;jettySize=auto;html=1;startArrow=none;endArrow=none;segment=10;curved=1;sourcePerimeterSpacing=0;targetPerimeterSpacing=0;" edge="1" parent="4T8DUvPG1SAxmXyFzRtK-12" source="1eWwv-I8uEaylaqoxTNq-34" target="1eWwv-I8uEaylaqoxTNq-36">
          <mxGeometry relative="1" as="geometry" />
        </mxCell>
        <mxCell id="1eWwv-I8uEaylaqoxTNq-48" value="uplink" style="whiteSpace=wrap;html=1;rounded=1;arcSize=50;align=center;verticalAlign=middle;strokeWidth=1;autosize=1;spacing=4;treeFolding=1;treeMoving=1;newEdgeStyle={&quot;edgeStyle&quot;:&quot;entityRelationEdgeStyle&quot;,&quot;startArrow&quot;:&quot;none&quot;,&quot;endArrow&quot;:&quot;none&quot;,&quot;segment&quot;:10,&quot;curved&quot;:1,&quot;sourcePerimeterSpacing&quot;:0,&quot;targetPerimeterSpacing&quot;:0};fillColor=#b0e3e6;strokeColor=#0e8088;container=0;" vertex="1" parent="4T8DUvPG1SAxmXyFzRtK-12">
          <mxGeometry x="300" y="1090" width="80" height="30" as="geometry" />
        </mxCell>
        <mxCell id="1eWwv-I8uEaylaqoxTNq-49" value="" style="edgeStyle=entityRelationEdgeStyle;rounded=0;orthogonalLoop=1;jettySize=auto;html=1;startArrow=none;endArrow=none;segment=10;curved=1;sourcePerimeterSpacing=0;targetPerimeterSpacing=0;" edge="1" parent="4T8DUvPG1SAxmXyFzRtK-12" source="1eWwv-I8uEaylaqoxTNq-34" target="1eWwv-I8uEaylaqoxTNq-48">
          <mxGeometry relative="1" as="geometry" />
        </mxCell>
        <mxCell id="1eWwv-I8uEaylaqoxTNq-50" value="one way latency" style="whiteSpace=wrap;html=1;rounded=1;arcSize=50;align=center;verticalAlign=middle;strokeWidth=1;autosize=1;spacing=4;treeFolding=1;treeMoving=1;newEdgeStyle={&quot;edgeStyle&quot;:&quot;entityRelationEdgeStyle&quot;,&quot;startArrow&quot;:&quot;none&quot;,&quot;endArrow&quot;:&quot;none&quot;,&quot;segment&quot;:10,&quot;curved&quot;:1,&quot;sourcePerimeterSpacing&quot;:0,&quot;targetPerimeterSpacing&quot;:0};fillColor=#b0e3e6;strokeColor=#0e8088;container=0;" vertex="1" parent="4T8DUvPG1SAxmXyFzRtK-12">
          <mxGeometry x="250" y="1150" width="130" height="30" as="geometry" />
        </mxCell>
        <mxCell id="1eWwv-I8uEaylaqoxTNq-51" value="" style="edgeStyle=entityRelationEdgeStyle;rounded=0;orthogonalLoop=1;jettySize=auto;html=1;startArrow=none;endArrow=none;segment=10;curved=1;sourcePerimeterSpacing=0;targetPerimeterSpacing=0;" edge="1" parent="4T8DUvPG1SAxmXyFzRtK-12" source="1eWwv-I8uEaylaqoxTNq-34" target="1eWwv-I8uEaylaqoxTNq-50">
          <mxGeometry relative="1" as="geometry" />
        </mxCell>
        <mxCell id="1eWwv-I8uEaylaqoxTNq-52" value="10 Mbps" style="whiteSpace=wrap;html=1;rounded=1;arcSize=50;align=center;verticalAlign=middle;strokeWidth=1;autosize=1;spacing=4;treeFolding=1;treeMoving=1;newEdgeStyle={&quot;edgeStyle&quot;:&quot;entityRelationEdgeStyle&quot;,&quot;startArrow&quot;:&quot;none&quot;,&quot;endArrow&quot;:&quot;none&quot;,&quot;segment&quot;:10,&quot;curved&quot;:1,&quot;sourcePerimeterSpacing&quot;:0,&quot;targetPerimeterSpacing&quot;:0};fillColor=#b0e3e6;strokeColor=#0e8088;container=0;" vertex="1" parent="4T8DUvPG1SAxmXyFzRtK-12">
          <mxGeometry x="120" y="1030" width="90" height="30" as="geometry" />
        </mxCell>
        <mxCell id="1eWwv-I8uEaylaqoxTNq-53" value="" style="edgeStyle=entityRelationEdgeStyle;rounded=0;orthogonalLoop=1;jettySize=auto;html=1;startArrow=none;endArrow=none;segment=10;curved=1;sourcePerimeterSpacing=0;targetPerimeterSpacing=0;" edge="1" parent="4T8DUvPG1SAxmXyFzRtK-12" source="1eWwv-I8uEaylaqoxTNq-36" target="1eWwv-I8uEaylaqoxTNq-52">
          <mxGeometry relative="1" as="geometry" />
        </mxCell>
        <mxCell id="1eWwv-I8uEaylaqoxTNq-58" value="5-9 Mbps" style="whiteSpace=wrap;html=1;rounded=1;arcSize=50;align=center;verticalAlign=middle;strokeWidth=1;autosize=1;spacing=4;treeFolding=1;treeMoving=1;newEdgeStyle={&quot;edgeStyle&quot;:&quot;entityRelationEdgeStyle&quot;,&quot;startArrow&quot;:&quot;none&quot;,&quot;endArrow&quot;:&quot;none&quot;,&quot;segment&quot;:10,&quot;curved&quot;:1,&quot;sourcePerimeterSpacing&quot;:0,&quot;targetPerimeterSpacing&quot;:0};fillColor=#b0e3e6;strokeColor=#0e8088;container=0;" vertex="1" parent="4T8DUvPG1SAxmXyFzRtK-12">
          <mxGeometry x="120" y="1090" width="90" height="30" as="geometry" />
        </mxCell>
        <mxCell id="1eWwv-I8uEaylaqoxTNq-59" value="" style="edgeStyle=entityRelationEdgeStyle;rounded=0;orthogonalLoop=1;jettySize=auto;html=1;startArrow=none;endArrow=none;segment=10;curved=1;sourcePerimeterSpacing=0;targetPerimeterSpacing=0;" edge="1" parent="4T8DUvPG1SAxmXyFzRtK-12" source="1eWwv-I8uEaylaqoxTNq-48" target="1eWwv-I8uEaylaqoxTNq-58">
          <mxGeometry relative="1" as="geometry" />
        </mxCell>
        <mxCell id="1eWwv-I8uEaylaqoxTNq-60" value="30-75 ms" style="whiteSpace=wrap;html=1;rounded=1;arcSize=50;align=center;verticalAlign=middle;strokeWidth=1;autosize=1;spacing=4;treeFolding=1;treeMoving=1;newEdgeStyle={&quot;edgeStyle&quot;:&quot;entityRelationEdgeStyle&quot;,&quot;startArrow&quot;:&quot;none&quot;,&quot;endArrow&quot;:&quot;none&quot;,&quot;segment&quot;:10,&quot;curved&quot;:1,&quot;sourcePerimeterSpacing&quot;:0,&quot;targetPerimeterSpacing&quot;:0};fillColor=#b0e3e6;strokeColor=#0e8088;container=0;" vertex="1" parent="4T8DUvPG1SAxmXyFzRtK-12">
          <mxGeometry x="120" y="1150" width="90" height="30" as="geometry" />
        </mxCell>
        <mxCell id="1eWwv-I8uEaylaqoxTNq-61" value="" style="edgeStyle=entityRelationEdgeStyle;rounded=0;orthogonalLoop=1;jettySize=auto;html=1;startArrow=none;endArrow=none;segment=10;curved=1;sourcePerimeterSpacing=0;targetPerimeterSpacing=0;" edge="1" parent="4T8DUvPG1SAxmXyFzRtK-12" source="1eWwv-I8uEaylaqoxTNq-50" target="1eWwv-I8uEaylaqoxTNq-60">
          <mxGeometry relative="1" as="geometry" />
        </mxCell>
        <mxCell id="1eWwv-I8uEaylaqoxTNq-62" value="AR" style="whiteSpace=wrap;html=1;rounded=1;arcSize=50;align=center;verticalAlign=middle;strokeWidth=1;autosize=1;spacing=4;treeFolding=1;treeMoving=1;newEdgeStyle={&quot;edgeStyle&quot;:&quot;entityRelationEdgeStyle&quot;,&quot;startArrow&quot;:&quot;none&quot;,&quot;endArrow&quot;:&quot;none&quot;,&quot;segment&quot;:10,&quot;curved&quot;:1,&quot;sourcePerimeterSpacing&quot;:0,&quot;targetPerimeterSpacing&quot;:0};fillColor=#b0e3e6;strokeColor=#0e8088;container=0;" vertex="1" parent="4T8DUvPG1SAxmXyFzRtK-12">
          <mxGeometry x="680" y="850" width="60" height="30" as="geometry" />
        </mxCell>
        <mxCell id="1eWwv-I8uEaylaqoxTNq-63" value="" style="edgeStyle=entityRelationEdgeStyle;rounded=0;orthogonalLoop=1;jettySize=auto;html=1;startArrow=none;endArrow=none;segment=10;curved=1;sourcePerimeterSpacing=0;targetPerimeterSpacing=0;" edge="1" parent="4T8DUvPG1SAxmXyFzRtK-12" source="1eWwv-I8uEaylaqoxTNq-30" target="1eWwv-I8uEaylaqoxTNq-62">
          <mxGeometry relative="1" as="geometry" />
        </mxCell>
        <mxCell id="1eWwv-I8uEaylaqoxTNq-124" style="edgeStyle=entityRelationEdgeStyle;rounded=0;orthogonalLoop=1;jettySize=auto;html=1;startArrow=none;endArrow=none;segment=10;curved=1;sourcePerimeterSpacing=0;targetPerimeterSpacing=0;entryX=1;entryY=0.5;entryDx=0;entryDy=0;" edge="1" parent="4T8DUvPG1SAxmXyFzRtK-12" source="1eWwv-I8uEaylaqoxTNq-64" target="1eWwv-I8uEaylaqoxTNq-121">
          <mxGeometry relative="1" as="geometry" />
        </mxCell>
        <mxCell id="1eWwv-I8uEaylaqoxTNq-64" value="Ericsson: 5G and XR" style="whiteSpace=wrap;html=1;rounded=1;arcSize=50;align=center;verticalAlign=middle;strokeWidth=1;autosize=1;spacing=4;treeFolding=1;treeMoving=1;newEdgeStyle={&quot;edgeStyle&quot;:&quot;entityRelationEdgeStyle&quot;,&quot;startArrow&quot;:&quot;none&quot;,&quot;endArrow&quot;:&quot;none&quot;,&quot;segment&quot;:10,&quot;curved&quot;:1,&quot;sourcePerimeterSpacing&quot;:0,&quot;targetPerimeterSpacing&quot;:0};fillColor=#b0e3e6;strokeColor=#0e8088;container=0;" vertex="1" parent="4T8DUvPG1SAxmXyFzRtK-12">
          <mxGeometry x="420" y="850" width="160" height="30" as="geometry" />
        </mxCell>
        <mxCell id="1eWwv-I8uEaylaqoxTNq-65" value="" style="edgeStyle=entityRelationEdgeStyle;rounded=0;orthogonalLoop=1;jettySize=auto;html=1;startArrow=none;endArrow=none;segment=10;curved=1;sourcePerimeterSpacing=0;targetPerimeterSpacing=0;" edge="1" parent="4T8DUvPG1SAxmXyFzRtK-12" source="1eWwv-I8uEaylaqoxTNq-62" target="1eWwv-I8uEaylaqoxTNq-64">
          <mxGeometry relative="1" as="geometry" />
        </mxCell>
        <mxCell id="1eWwv-I8uEaylaqoxTNq-66" value="downlink" style="whiteSpace=wrap;html=1;rounded=1;arcSize=50;align=center;verticalAlign=middle;strokeWidth=1;autosize=1;spacing=4;treeFolding=1;treeMoving=1;newEdgeStyle={&quot;edgeStyle&quot;:&quot;entityRelationEdgeStyle&quot;,&quot;startArrow&quot;:&quot;none&quot;,&quot;endArrow&quot;:&quot;none&quot;,&quot;segment&quot;:10,&quot;curved&quot;:1,&quot;sourcePerimeterSpacing&quot;:0,&quot;targetPerimeterSpacing&quot;:0};fillColor=#b0e3e6;strokeColor=#0e8088;container=0;" vertex="1" parent="4T8DUvPG1SAxmXyFzRtK-12">
          <mxGeometry x="285" y="800" width="90" height="30" as="geometry" />
        </mxCell>
        <mxCell id="1eWwv-I8uEaylaqoxTNq-67" value="" style="edgeStyle=entityRelationEdgeStyle;rounded=0;orthogonalLoop=1;jettySize=auto;html=1;startArrow=none;endArrow=none;segment=10;curved=1;sourcePerimeterSpacing=0;targetPerimeterSpacing=0;" edge="1" parent="4T8DUvPG1SAxmXyFzRtK-12" source="1eWwv-I8uEaylaqoxTNq-64" target="1eWwv-I8uEaylaqoxTNq-66">
          <mxGeometry relative="1" as="geometry" />
        </mxCell>
        <mxCell id="1eWwv-I8uEaylaqoxTNq-68" value="uplink" style="whiteSpace=wrap;html=1;rounded=1;arcSize=50;align=center;verticalAlign=middle;strokeWidth=1;autosize=1;spacing=4;treeFolding=1;treeMoving=1;newEdgeStyle={&quot;edgeStyle&quot;:&quot;entityRelationEdgeStyle&quot;,&quot;startArrow&quot;:&quot;none&quot;,&quot;endArrow&quot;:&quot;none&quot;,&quot;segment&quot;:10,&quot;curved&quot;:1,&quot;sourcePerimeterSpacing&quot;:0,&quot;targetPerimeterSpacing&quot;:0};fillColor=#b0e3e6;strokeColor=#0e8088;container=0;" vertex="1" parent="4T8DUvPG1SAxmXyFzRtK-12">
          <mxGeometry x="295" y="850" width="80" height="30" as="geometry" />
        </mxCell>
        <mxCell id="1eWwv-I8uEaylaqoxTNq-69" value="" style="edgeStyle=entityRelationEdgeStyle;rounded=0;orthogonalLoop=1;jettySize=auto;html=1;startArrow=none;endArrow=none;segment=10;curved=1;sourcePerimeterSpacing=0;targetPerimeterSpacing=0;" edge="1" parent="4T8DUvPG1SAxmXyFzRtK-12" source="1eWwv-I8uEaylaqoxTNq-64" target="1eWwv-I8uEaylaqoxTNq-68">
          <mxGeometry relative="1" as="geometry" />
        </mxCell>
        <mxCell id="1eWwv-I8uEaylaqoxTNq-70" value="" style="edgeStyle=entityRelationEdgeStyle;rounded=0;orthogonalLoop=1;jettySize=auto;html=1;startArrow=none;endArrow=none;segment=10;curved=1;sourcePerimeterSpacing=0;targetPerimeterSpacing=0;" edge="1" parent="4T8DUvPG1SAxmXyFzRtK-12" source="1eWwv-I8uEaylaqoxTNq-64" target="1eWwv-I8uEaylaqoxTNq-68">
          <mxGeometry relative="1" as="geometry" />
        </mxCell>
        <mxCell id="1eWwv-I8uEaylaqoxTNq-71" value="" style="edgeStyle=entityRelationEdgeStyle;rounded=0;orthogonalLoop=1;jettySize=auto;html=1;startArrow=none;endArrow=none;segment=10;curved=1;sourcePerimeterSpacing=0;targetPerimeterSpacing=0;" edge="1" parent="4T8DUvPG1SAxmXyFzRtK-12" source="1eWwv-I8uEaylaqoxTNq-64" target="1eWwv-I8uEaylaqoxTNq-68">
          <mxGeometry relative="1" as="geometry" />
        </mxCell>
        <mxCell id="1eWwv-I8uEaylaqoxTNq-72" value="latency" style="whiteSpace=wrap;html=1;rounded=1;arcSize=50;align=center;verticalAlign=middle;strokeWidth=1;autosize=1;spacing=4;treeFolding=1;treeMoving=1;newEdgeStyle={&quot;edgeStyle&quot;:&quot;entityRelationEdgeStyle&quot;,&quot;startArrow&quot;:&quot;none&quot;,&quot;endArrow&quot;:&quot;none&quot;,&quot;segment&quot;:10,&quot;curved&quot;:1,&quot;sourcePerimeterSpacing&quot;:0,&quot;targetPerimeterSpacing&quot;:0};fillColor=#b0e3e6;strokeColor=#0e8088;container=0;" vertex="1" parent="4T8DUvPG1SAxmXyFzRtK-12">
          <mxGeometry x="295" y="900" width="80" height="30" as="geometry" />
        </mxCell>
        <mxCell id="1eWwv-I8uEaylaqoxTNq-73" value="" style="edgeStyle=entityRelationEdgeStyle;rounded=0;orthogonalLoop=1;jettySize=auto;html=1;startArrow=none;endArrow=none;segment=10;curved=1;sourcePerimeterSpacing=0;targetPerimeterSpacing=0;" edge="1" parent="4T8DUvPG1SAxmXyFzRtK-12" source="1eWwv-I8uEaylaqoxTNq-64" target="1eWwv-I8uEaylaqoxTNq-72">
          <mxGeometry relative="1" as="geometry" />
        </mxCell>
        <mxCell id="1eWwv-I8uEaylaqoxTNq-74" value="2-60 Mbps" style="whiteSpace=wrap;html=1;rounded=1;arcSize=50;align=center;verticalAlign=middle;strokeWidth=1;autosize=1;spacing=4;treeFolding=1;treeMoving=1;newEdgeStyle={&quot;edgeStyle&quot;:&quot;entityRelationEdgeStyle&quot;,&quot;startArrow&quot;:&quot;none&quot;,&quot;endArrow&quot;:&quot;none&quot;,&quot;segment&quot;:10,&quot;curved&quot;:1,&quot;sourcePerimeterSpacing&quot;:0,&quot;targetPerimeterSpacing&quot;:0};fillColor=#b0e3e6;strokeColor=#0e8088;container=0;" vertex="1" parent="4T8DUvPG1SAxmXyFzRtK-12">
          <mxGeometry x="110" y="800" width="100" height="30" as="geometry" />
        </mxCell>
        <mxCell id="1eWwv-I8uEaylaqoxTNq-75" value="" style="edgeStyle=entityRelationEdgeStyle;rounded=0;orthogonalLoop=1;jettySize=auto;html=1;startArrow=none;endArrow=none;segment=10;curved=1;sourcePerimeterSpacing=0;targetPerimeterSpacing=0;" edge="1" parent="4T8DUvPG1SAxmXyFzRtK-12" source="1eWwv-I8uEaylaqoxTNq-66" target="1eWwv-I8uEaylaqoxTNq-74">
          <mxGeometry relative="1" as="geometry" />
        </mxCell>
        <mxCell id="1eWwv-I8uEaylaqoxTNq-78" value="2-20 Mbps" style="whiteSpace=wrap;html=1;rounded=1;arcSize=50;align=center;verticalAlign=middle;strokeWidth=1;autosize=1;spacing=4;treeFolding=1;treeMoving=1;newEdgeStyle={&quot;edgeStyle&quot;:&quot;entityRelationEdgeStyle&quot;,&quot;startArrow&quot;:&quot;none&quot;,&quot;endArrow&quot;:&quot;none&quot;,&quot;segment&quot;:10,&quot;curved&quot;:1,&quot;sourcePerimeterSpacing&quot;:0,&quot;targetPerimeterSpacing&quot;:0};fillColor=#b0e3e6;strokeColor=#0e8088;container=0;" vertex="1" parent="4T8DUvPG1SAxmXyFzRtK-12">
          <mxGeometry x="110" y="850" width="100" height="30" as="geometry" />
        </mxCell>
        <mxCell id="1eWwv-I8uEaylaqoxTNq-79" value="" style="edgeStyle=entityRelationEdgeStyle;rounded=0;orthogonalLoop=1;jettySize=auto;html=1;startArrow=none;endArrow=none;segment=10;curved=1;sourcePerimeterSpacing=0;targetPerimeterSpacing=0;" edge="1" parent="4T8DUvPG1SAxmXyFzRtK-12" source="1eWwv-I8uEaylaqoxTNq-68" target="1eWwv-I8uEaylaqoxTNq-78">
          <mxGeometry relative="1" as="geometry" />
        </mxCell>
        <mxCell id="1eWwv-I8uEaylaqoxTNq-81" value="5-50 ms" style="whiteSpace=wrap;html=1;rounded=1;arcSize=50;align=center;verticalAlign=middle;strokeWidth=1;autosize=1;spacing=4;treeFolding=1;treeMoving=1;newEdgeStyle={&quot;edgeStyle&quot;:&quot;entityRelationEdgeStyle&quot;,&quot;startArrow&quot;:&quot;none&quot;,&quot;endArrow&quot;:&quot;none&quot;,&quot;segment&quot;:10,&quot;curved&quot;:1,&quot;sourcePerimeterSpacing&quot;:0,&quot;targetPerimeterSpacing&quot;:0};fillColor=#b0e3e6;strokeColor=#0e8088;container=0;" vertex="1" parent="4T8DUvPG1SAxmXyFzRtK-12">
          <mxGeometry x="120" y="900" width="90" height="30" as="geometry" />
        </mxCell>
        <mxCell id="1eWwv-I8uEaylaqoxTNq-82" value="" style="edgeStyle=entityRelationEdgeStyle;rounded=0;orthogonalLoop=1;jettySize=auto;html=1;startArrow=none;endArrow=none;segment=10;curved=1;sourcePerimeterSpacing=0;targetPerimeterSpacing=0;" edge="1" parent="4T8DUvPG1SAxmXyFzRtK-12" source="1eWwv-I8uEaylaqoxTNq-72" target="1eWwv-I8uEaylaqoxTNq-81">
          <mxGeometry relative="1" as="geometry" />
        </mxCell>
        <mxCell id="1eWwv-I8uEaylaqoxTNq-83" value="" style="edgeStyle=entityRelationEdgeStyle;startArrow=none;endArrow=none;segment=10;curved=1;sourcePerimeterSpacing=0;targetPerimeterSpacing=0;rounded=0;" edge="1" target="1eWwv-I8uEaylaqoxTNq-84" source="4T8DUvPG1SAxmXyFzRtK-18" parent="4T8DUvPG1SAxmXyFzRtK-12">
          <mxGeometry relative="1" as="geometry">
            <mxPoint x="1734" y="1560" as="sourcePoint" />
          </mxGeometry>
        </mxCell>
        <mxCell id="1eWwv-I8uEaylaqoxTNq-84" value="Packet loss" style="whiteSpace=wrap;html=1;rounded=1;arcSize=50;align=center;verticalAlign=middle;strokeWidth=1;autosize=1;spacing=4;treeFolding=1;treeMoving=1;newEdgeStyle={&quot;edgeStyle&quot;:&quot;entityRelationEdgeStyle&quot;,&quot;startArrow&quot;:&quot;none&quot;,&quot;endArrow&quot;:&quot;none&quot;,&quot;segment&quot;:10,&quot;curved&quot;:1,&quot;sourcePerimeterSpacing&quot;:0,&quot;targetPerimeterSpacing&quot;:0};fillColor=#d5e8d4;strokeColor=#82b366;container=0;" vertex="1" parent="4T8DUvPG1SAxmXyFzRtK-12">
          <mxGeometry x="1400" y="1275" width="110" height="30" as="geometry" />
        </mxCell>
        <mxCell id="1eWwv-I8uEaylaqoxTNq-89" value="" style="edgeStyle=entityRelationEdgeStyle;startArrow=none;endArrow=none;segment=10;curved=1;sourcePerimeterSpacing=0;targetPerimeterSpacing=0;rounded=0;" edge="1" target="1eWwv-I8uEaylaqoxTNq-90" source="1eWwv-I8uEaylaqoxTNq-15" parent="4T8DUvPG1SAxmXyFzRtK-12">
          <mxGeometry relative="1" as="geometry">
            <mxPoint x="1495" y="1560" as="sourcePoint" />
          </mxGeometry>
        </mxCell>
        <mxCell id="1eWwv-I8uEaylaqoxTNq-90" value="standards" style="whiteSpace=wrap;html=1;rounded=1;arcSize=50;align=center;verticalAlign=middle;strokeWidth=1;autosize=1;spacing=4;treeFolding=1;treeMoving=1;newEdgeStyle={&quot;edgeStyle&quot;:&quot;entityRelationEdgeStyle&quot;,&quot;startArrow&quot;:&quot;none&quot;,&quot;endArrow&quot;:&quot;none&quot;,&quot;segment&quot;:10,&quot;curved&quot;:1,&quot;sourcePerimeterSpacing&quot;:0,&quot;targetPerimeterSpacing&quot;:0};fillColor=#b1ddf0;container=0;strokeColor=#10739e;" vertex="1" parent="4T8DUvPG1SAxmXyFzRtK-12">
          <mxGeometry x="1115" y="990" width="100" height="30" as="geometry" />
        </mxCell>
        <mxCell id="1eWwv-I8uEaylaqoxTNq-91" value="" style="edgeStyle=entityRelationEdgeStyle;startArrow=none;endArrow=none;segment=10;curved=1;sourcePerimeterSpacing=0;targetPerimeterSpacing=0;rounded=0;" edge="1" target="1eWwv-I8uEaylaqoxTNq-92" source="1eWwv-I8uEaylaqoxTNq-90" parent="4T8DUvPG1SAxmXyFzRtK-12">
          <mxGeometry relative="1" as="geometry">
            <mxPoint x="1464" y="1435" as="sourcePoint" />
          </mxGeometry>
        </mxCell>
        <mxCell id="1eWwv-I8uEaylaqoxTNq-92" value="ITU-TP.1203" style="whiteSpace=wrap;html=1;rounded=1;arcSize=50;align=center;verticalAlign=middle;strokeWidth=1;autosize=1;spacing=4;treeFolding=1;treeMoving=1;newEdgeStyle={&quot;edgeStyle&quot;:&quot;entityRelationEdgeStyle&quot;,&quot;startArrow&quot;:&quot;none&quot;,&quot;endArrow&quot;:&quot;none&quot;,&quot;segment&quot;:10,&quot;curved&quot;:1,&quot;sourcePerimeterSpacing&quot;:0,&quot;targetPerimeterSpacing&quot;:0};fillColor=#b1ddf0;container=0;strokeColor=#10739e;" vertex="1" parent="4T8DUvPG1SAxmXyFzRtK-12">
          <mxGeometry x="1250" y="990" width="110" height="30" as="geometry" />
        </mxCell>
        <mxCell id="1eWwv-I8uEaylaqoxTNq-99" value="VR" style="whiteSpace=wrap;html=1;rounded=1;arcSize=50;align=center;verticalAlign=middle;strokeWidth=1;autosize=1;spacing=4;treeFolding=1;treeMoving=1;newEdgeStyle={&quot;edgeStyle&quot;:&quot;entityRelationEdgeStyle&quot;,&quot;startArrow&quot;:&quot;none&quot;,&quot;endArrow&quot;:&quot;none&quot;,&quot;segment&quot;:10,&quot;curved&quot;:1,&quot;sourcePerimeterSpacing&quot;:0,&quot;targetPerimeterSpacing&quot;:0};fillColor=#b0e3e6;strokeColor=#0e8088;container=0;" vertex="1" parent="4T8DUvPG1SAxmXyFzRtK-12">
          <mxGeometry x="680" y="620" width="60" height="30" as="geometry" />
        </mxCell>
        <mxCell id="1eWwv-I8uEaylaqoxTNq-100" value="Ericsson: 5G and XR" style="whiteSpace=wrap;html=1;rounded=1;arcSize=50;align=center;verticalAlign=middle;strokeWidth=1;autosize=1;spacing=4;treeFolding=1;treeMoving=1;newEdgeStyle={&quot;edgeStyle&quot;:&quot;entityRelationEdgeStyle&quot;,&quot;startArrow&quot;:&quot;none&quot;,&quot;endArrow&quot;:&quot;none&quot;,&quot;segment&quot;:10,&quot;curved&quot;:1,&quot;sourcePerimeterSpacing&quot;:0,&quot;targetPerimeterSpacing&quot;:0};fillColor=#b0e3e6;strokeColor=#0e8088;container=0;" vertex="1" parent="4T8DUvPG1SAxmXyFzRtK-12">
          <mxGeometry x="420" y="620" width="160" height="30" as="geometry" />
        </mxCell>
        <mxCell id="1eWwv-I8uEaylaqoxTNq-101" value="" style="edgeStyle=entityRelationEdgeStyle;rounded=0;orthogonalLoop=1;jettySize=auto;html=1;startArrow=none;endArrow=none;segment=10;curved=1;sourcePerimeterSpacing=0;targetPerimeterSpacing=0;" edge="1" parent="4T8DUvPG1SAxmXyFzRtK-12" source="1eWwv-I8uEaylaqoxTNq-99" target="1eWwv-I8uEaylaqoxTNq-100">
          <mxGeometry relative="1" as="geometry" />
        </mxCell>
        <mxCell id="1eWwv-I8uEaylaqoxTNq-102" value="downlink" style="whiteSpace=wrap;html=1;rounded=1;arcSize=50;align=center;verticalAlign=middle;strokeWidth=1;autosize=1;spacing=4;treeFolding=1;treeMoving=1;newEdgeStyle={&quot;edgeStyle&quot;:&quot;entityRelationEdgeStyle&quot;,&quot;startArrow&quot;:&quot;none&quot;,&quot;endArrow&quot;:&quot;none&quot;,&quot;segment&quot;:10,&quot;curved&quot;:1,&quot;sourcePerimeterSpacing&quot;:0,&quot;targetPerimeterSpacing&quot;:0};fillColor=#b0e3e6;strokeColor=#0e8088;container=0;" vertex="1" parent="4T8DUvPG1SAxmXyFzRtK-12">
          <mxGeometry x="285" y="570" width="90" height="30" as="geometry" />
        </mxCell>
        <mxCell id="1eWwv-I8uEaylaqoxTNq-103" value="" style="edgeStyle=entityRelationEdgeStyle;rounded=0;orthogonalLoop=1;jettySize=auto;html=1;startArrow=none;endArrow=none;segment=10;curved=1;sourcePerimeterSpacing=0;targetPerimeterSpacing=0;" edge="1" parent="4T8DUvPG1SAxmXyFzRtK-12" source="1eWwv-I8uEaylaqoxTNq-100" target="1eWwv-I8uEaylaqoxTNq-102">
          <mxGeometry relative="1" as="geometry" />
        </mxCell>
        <mxCell id="1eWwv-I8uEaylaqoxTNq-104" value="uplink" style="whiteSpace=wrap;html=1;rounded=1;arcSize=50;align=center;verticalAlign=middle;strokeWidth=1;autosize=1;spacing=4;treeFolding=1;treeMoving=1;newEdgeStyle={&quot;edgeStyle&quot;:&quot;entityRelationEdgeStyle&quot;,&quot;startArrow&quot;:&quot;none&quot;,&quot;endArrow&quot;:&quot;none&quot;,&quot;segment&quot;:10,&quot;curved&quot;:1,&quot;sourcePerimeterSpacing&quot;:0,&quot;targetPerimeterSpacing&quot;:0};fillColor=#b0e3e6;strokeColor=#0e8088;container=0;" vertex="1" parent="4T8DUvPG1SAxmXyFzRtK-12">
          <mxGeometry x="295" y="620" width="80" height="30" as="geometry" />
        </mxCell>
        <mxCell id="1eWwv-I8uEaylaqoxTNq-105" value="" style="edgeStyle=entityRelationEdgeStyle;rounded=0;orthogonalLoop=1;jettySize=auto;html=1;startArrow=none;endArrow=none;segment=10;curved=1;sourcePerimeterSpacing=0;targetPerimeterSpacing=0;" edge="1" parent="4T8DUvPG1SAxmXyFzRtK-12" source="1eWwv-I8uEaylaqoxTNq-100" target="1eWwv-I8uEaylaqoxTNq-104">
          <mxGeometry relative="1" as="geometry" />
        </mxCell>
        <mxCell id="1eWwv-I8uEaylaqoxTNq-106" value="" style="edgeStyle=entityRelationEdgeStyle;rounded=0;orthogonalLoop=1;jettySize=auto;html=1;startArrow=none;endArrow=none;segment=10;curved=1;sourcePerimeterSpacing=0;targetPerimeterSpacing=0;" edge="1" parent="4T8DUvPG1SAxmXyFzRtK-12" source="1eWwv-I8uEaylaqoxTNq-100" target="1eWwv-I8uEaylaqoxTNq-104">
          <mxGeometry relative="1" as="geometry" />
        </mxCell>
        <mxCell id="1eWwv-I8uEaylaqoxTNq-107" value="" style="edgeStyle=entityRelationEdgeStyle;rounded=0;orthogonalLoop=1;jettySize=auto;html=1;startArrow=none;endArrow=none;segment=10;curved=1;sourcePerimeterSpacing=0;targetPerimeterSpacing=0;" edge="1" parent="4T8DUvPG1SAxmXyFzRtK-12" source="1eWwv-I8uEaylaqoxTNq-100" target="1eWwv-I8uEaylaqoxTNq-104">
          <mxGeometry relative="1" as="geometry" />
        </mxCell>
        <mxCell id="1eWwv-I8uEaylaqoxTNq-108" value="latency" style="whiteSpace=wrap;html=1;rounded=1;arcSize=50;align=center;verticalAlign=middle;strokeWidth=1;autosize=1;spacing=4;treeFolding=1;treeMoving=1;newEdgeStyle={&quot;edgeStyle&quot;:&quot;entityRelationEdgeStyle&quot;,&quot;startArrow&quot;:&quot;none&quot;,&quot;endArrow&quot;:&quot;none&quot;,&quot;segment&quot;:10,&quot;curved&quot;:1,&quot;sourcePerimeterSpacing&quot;:0,&quot;targetPerimeterSpacing&quot;:0};fillColor=#b0e3e6;strokeColor=#0e8088;container=0;" vertex="1" parent="4T8DUvPG1SAxmXyFzRtK-12">
          <mxGeometry x="295" y="670" width="80" height="30" as="geometry" />
        </mxCell>
        <mxCell id="1eWwv-I8uEaylaqoxTNq-109" value="" style="edgeStyle=entityRelationEdgeStyle;rounded=0;orthogonalLoop=1;jettySize=auto;html=1;startArrow=none;endArrow=none;segment=10;curved=1;sourcePerimeterSpacing=0;targetPerimeterSpacing=0;" edge="1" parent="4T8DUvPG1SAxmXyFzRtK-12" source="1eWwv-I8uEaylaqoxTNq-100" target="1eWwv-I8uEaylaqoxTNq-108">
          <mxGeometry relative="1" as="geometry" />
        </mxCell>
        <mxCell id="1eWwv-I8uEaylaqoxTNq-110" value="30-100 Mbps" style="whiteSpace=wrap;html=1;rounded=1;arcSize=50;align=center;verticalAlign=middle;strokeWidth=1;autosize=1;spacing=4;treeFolding=1;treeMoving=1;newEdgeStyle={&quot;edgeStyle&quot;:&quot;entityRelationEdgeStyle&quot;,&quot;startArrow&quot;:&quot;none&quot;,&quot;endArrow&quot;:&quot;none&quot;,&quot;segment&quot;:10,&quot;curved&quot;:1,&quot;sourcePerimeterSpacing&quot;:0,&quot;targetPerimeterSpacing&quot;:0};fillColor=#b0e3e6;strokeColor=#0e8088;container=0;" vertex="1" parent="4T8DUvPG1SAxmXyFzRtK-12">
          <mxGeometry x="100" y="570" width="110" height="30" as="geometry" />
        </mxCell>
        <mxCell id="1eWwv-I8uEaylaqoxTNq-111" value="" style="edgeStyle=entityRelationEdgeStyle;rounded=0;orthogonalLoop=1;jettySize=auto;html=1;startArrow=none;endArrow=none;segment=10;curved=1;sourcePerimeterSpacing=0;targetPerimeterSpacing=0;" edge="1" parent="4T8DUvPG1SAxmXyFzRtK-12" source="1eWwv-I8uEaylaqoxTNq-102" target="1eWwv-I8uEaylaqoxTNq-110">
          <mxGeometry relative="1" as="geometry" />
        </mxCell>
        <mxCell id="1eWwv-I8uEaylaqoxTNq-112" value="&amp;lt; 2 Mbps" style="whiteSpace=wrap;html=1;rounded=1;arcSize=50;align=center;verticalAlign=middle;strokeWidth=1;autosize=1;spacing=4;treeFolding=1;treeMoving=1;newEdgeStyle={&quot;edgeStyle&quot;:&quot;entityRelationEdgeStyle&quot;,&quot;startArrow&quot;:&quot;none&quot;,&quot;endArrow&quot;:&quot;none&quot;,&quot;segment&quot;:10,&quot;curved&quot;:1,&quot;sourcePerimeterSpacing&quot;:0,&quot;targetPerimeterSpacing&quot;:0};fillColor=#b0e3e6;strokeColor=#0e8088;container=0;" vertex="1" parent="4T8DUvPG1SAxmXyFzRtK-12">
          <mxGeometry x="120" y="620" width="90" height="30" as="geometry" />
        </mxCell>
        <mxCell id="1eWwv-I8uEaylaqoxTNq-113" value="" style="edgeStyle=entityRelationEdgeStyle;rounded=0;orthogonalLoop=1;jettySize=auto;html=1;startArrow=none;endArrow=none;segment=10;curved=1;sourcePerimeterSpacing=0;targetPerimeterSpacing=0;" edge="1" parent="4T8DUvPG1SAxmXyFzRtK-12" source="1eWwv-I8uEaylaqoxTNq-104" target="1eWwv-I8uEaylaqoxTNq-112">
          <mxGeometry relative="1" as="geometry" />
        </mxCell>
        <mxCell id="1eWwv-I8uEaylaqoxTNq-114" value="5-50 ms" style="whiteSpace=wrap;html=1;rounded=1;arcSize=50;align=center;verticalAlign=middle;strokeWidth=1;autosize=1;spacing=4;treeFolding=1;treeMoving=1;newEdgeStyle={&quot;edgeStyle&quot;:&quot;entityRelationEdgeStyle&quot;,&quot;startArrow&quot;:&quot;none&quot;,&quot;endArrow&quot;:&quot;none&quot;,&quot;segment&quot;:10,&quot;curved&quot;:1,&quot;sourcePerimeterSpacing&quot;:0,&quot;targetPerimeterSpacing&quot;:0};fillColor=#b0e3e6;strokeColor=#0e8088;container=0;" vertex="1" parent="4T8DUvPG1SAxmXyFzRtK-12">
          <mxGeometry x="120" y="670" width="90" height="30" as="geometry" />
        </mxCell>
        <mxCell id="1eWwv-I8uEaylaqoxTNq-115" value="" style="edgeStyle=entityRelationEdgeStyle;rounded=0;orthogonalLoop=1;jettySize=auto;html=1;startArrow=none;endArrow=none;segment=10;curved=1;sourcePerimeterSpacing=0;targetPerimeterSpacing=0;" edge="1" parent="4T8DUvPG1SAxmXyFzRtK-12" source="1eWwv-I8uEaylaqoxTNq-108" target="1eWwv-I8uEaylaqoxTNq-114">
          <mxGeometry relative="1" as="geometry" />
        </mxCell>
        <mxCell id="1eWwv-I8uEaylaqoxTNq-117" value="" style="edgeStyle=entityRelationEdgeStyle;rounded=0;orthogonalLoop=1;jettySize=auto;html=1;startArrow=none;endArrow=none;segment=10;curved=1;sourcePerimeterSpacing=0;targetPerimeterSpacing=0;" edge="1" target="1eWwv-I8uEaylaqoxTNq-118" source="1eWwv-I8uEaylaqoxTNq-100" parent="4T8DUvPG1SAxmXyFzRtK-12">
          <mxGeometry relative="1" as="geometry">
            <mxPoint x="800" y="835" as="sourcePoint" />
          </mxGeometry>
        </mxCell>
        <mxCell id="1eWwv-I8uEaylaqoxTNq-118" value="Frame reliability" style="whiteSpace=wrap;html=1;rounded=1;arcSize=50;align=center;verticalAlign=middle;strokeWidth=1;autosize=1;spacing=4;treeFolding=1;treeMoving=1;newEdgeStyle={&quot;edgeStyle&quot;:&quot;entityRelationEdgeStyle&quot;,&quot;startArrow&quot;:&quot;none&quot;,&quot;endArrow&quot;:&quot;none&quot;,&quot;segment&quot;:10,&quot;curved&quot;:1,&quot;sourcePerimeterSpacing&quot;:0,&quot;targetPerimeterSpacing&quot;:0};fillColor=#b0e3e6;strokeColor=#0e8088;container=0;" vertex="1" parent="4T8DUvPG1SAxmXyFzRtK-12">
          <mxGeometry x="245" y="720" width="130" height="30" as="geometry" />
        </mxCell>
        <mxCell id="1eWwv-I8uEaylaqoxTNq-119" value="" style="edgeStyle=entityRelationEdgeStyle;rounded=0;orthogonalLoop=1;jettySize=auto;html=1;startArrow=none;endArrow=none;segment=10;curved=1;sourcePerimeterSpacing=0;targetPerimeterSpacing=0;" edge="1" target="1eWwv-I8uEaylaqoxTNq-120" source="1eWwv-I8uEaylaqoxTNq-118" parent="4T8DUvPG1SAxmXyFzRtK-12">
          <mxGeometry relative="1" as="geometry">
            <mxPoint x="800" y="845" as="sourcePoint" />
          </mxGeometry>
        </mxCell>
        <mxCell id="1eWwv-I8uEaylaqoxTNq-120" value="&amp;gt;= 99 %" style="whiteSpace=wrap;html=1;rounded=1;arcSize=50;align=center;verticalAlign=middle;strokeWidth=1;autosize=1;spacing=4;treeFolding=1;treeMoving=1;newEdgeStyle={&quot;edgeStyle&quot;:&quot;entityRelationEdgeStyle&quot;,&quot;startArrow&quot;:&quot;none&quot;,&quot;endArrow&quot;:&quot;none&quot;,&quot;segment&quot;:10,&quot;curved&quot;:1,&quot;sourcePerimeterSpacing&quot;:0,&quot;targetPerimeterSpacing&quot;:0};fillColor=#b0e3e6;strokeColor=#0e8088;container=0;" vertex="1" parent="4T8DUvPG1SAxmXyFzRtK-12">
          <mxGeometry x="120" y="720" width="90" height="30" as="geometry" />
        </mxCell>
        <mxCell id="1eWwv-I8uEaylaqoxTNq-121" value="Frame reliability" style="whiteSpace=wrap;html=1;rounded=1;arcSize=50;align=center;verticalAlign=middle;strokeWidth=1;autosize=1;spacing=4;treeFolding=1;treeMoving=1;newEdgeStyle={&quot;edgeStyle&quot;:&quot;entityRelationEdgeStyle&quot;,&quot;startArrow&quot;:&quot;none&quot;,&quot;endArrow&quot;:&quot;none&quot;,&quot;segment&quot;:10,&quot;curved&quot;:1,&quot;sourcePerimeterSpacing&quot;:0,&quot;targetPerimeterSpacing&quot;:0};fillColor=#b0e3e6;strokeColor=#0e8088;container=0;" vertex="1" parent="4T8DUvPG1SAxmXyFzRtK-12">
          <mxGeometry x="250" y="950" width="130" height="30" as="geometry" />
        </mxCell>
        <mxCell id="1eWwv-I8uEaylaqoxTNq-122" value="" style="edgeStyle=entityRelationEdgeStyle;rounded=0;orthogonalLoop=1;jettySize=auto;html=1;startArrow=none;endArrow=none;segment=10;curved=1;sourcePerimeterSpacing=0;targetPerimeterSpacing=0;" edge="1" parent="4T8DUvPG1SAxmXyFzRtK-12" source="1eWwv-I8uEaylaqoxTNq-121" target="1eWwv-I8uEaylaqoxTNq-123">
          <mxGeometry relative="1" as="geometry">
            <mxPoint x="805" y="1075" as="sourcePoint" />
          </mxGeometry>
        </mxCell>
        <mxCell id="1eWwv-I8uEaylaqoxTNq-123" value="&amp;gt;= 99 %" style="whiteSpace=wrap;html=1;rounded=1;arcSize=50;align=center;verticalAlign=middle;strokeWidth=1;autosize=1;spacing=4;treeFolding=1;treeMoving=1;newEdgeStyle={&quot;edgeStyle&quot;:&quot;entityRelationEdgeStyle&quot;,&quot;startArrow&quot;:&quot;none&quot;,&quot;endArrow&quot;:&quot;none&quot;,&quot;segment&quot;:10,&quot;curved&quot;:1,&quot;sourcePerimeterSpacing&quot;:0,&quot;targetPerimeterSpacing&quot;:0};fillColor=#b0e3e6;strokeColor=#0e8088;container=0;" vertex="1" parent="4T8DUvPG1SAxmXyFzRtK-12">
          <mxGeometry x="120" y="950" width="90" height="30" as="geometry" />
        </mxCell>
        <mxCell id="1eWwv-I8uEaylaqoxTNq-125" value="Frame reliability" style="whiteSpace=wrap;html=1;rounded=1;arcSize=50;align=center;verticalAlign=middle;strokeWidth=1;autosize=1;spacing=4;treeFolding=1;treeMoving=1;newEdgeStyle={&quot;edgeStyle&quot;:&quot;entityRelationEdgeStyle&quot;,&quot;startArrow&quot;:&quot;none&quot;,&quot;endArrow&quot;:&quot;none&quot;,&quot;segment&quot;:10,&quot;curved&quot;:1,&quot;sourcePerimeterSpacing&quot;:0,&quot;targetPerimeterSpacing&quot;:0};fillColor=#b0e3e6;strokeColor=#0e8088;container=0;" vertex="1" parent="4T8DUvPG1SAxmXyFzRtK-12">
          <mxGeometry x="250" y="1200" width="130" height="30" as="geometry" />
        </mxCell>
        <mxCell id="1eWwv-I8uEaylaqoxTNq-126" value="" style="edgeStyle=entityRelationEdgeStyle;rounded=0;orthogonalLoop=1;jettySize=auto;html=1;startArrow=none;endArrow=none;segment=10;curved=1;sourcePerimeterSpacing=0;targetPerimeterSpacing=0;" edge="1" parent="4T8DUvPG1SAxmXyFzRtK-12" source="1eWwv-I8uEaylaqoxTNq-125" target="1eWwv-I8uEaylaqoxTNq-127">
          <mxGeometry relative="1" as="geometry">
            <mxPoint x="805" y="1325" as="sourcePoint" />
          </mxGeometry>
        </mxCell>
        <mxCell id="1eWwv-I8uEaylaqoxTNq-127" value="&amp;gt;= 99 %" style="whiteSpace=wrap;html=1;rounded=1;arcSize=50;align=center;verticalAlign=middle;strokeWidth=1;autosize=1;spacing=4;treeFolding=1;treeMoving=1;newEdgeStyle={&quot;edgeStyle&quot;:&quot;entityRelationEdgeStyle&quot;,&quot;startArrow&quot;:&quot;none&quot;,&quot;endArrow&quot;:&quot;none&quot;,&quot;segment&quot;:10,&quot;curved&quot;:1,&quot;sourcePerimeterSpacing&quot;:0,&quot;targetPerimeterSpacing&quot;:0};fillColor=#b0e3e6;strokeColor=#0e8088;container=0;" vertex="1" parent="4T8DUvPG1SAxmXyFzRtK-12">
          <mxGeometry x="120" y="1200" width="90" height="30" as="geometry" />
        </mxCell>
        <mxCell id="1eWwv-I8uEaylaqoxTNq-129" value="cloud gaming" style="whiteSpace=wrap;html=1;rounded=1;arcSize=50;align=center;verticalAlign=middle;strokeWidth=1;autosize=1;spacing=4;treeFolding=1;treeMoving=1;newEdgeStyle={&quot;edgeStyle&quot;:&quot;entityRelationEdgeStyle&quot;,&quot;startArrow&quot;:&quot;none&quot;,&quot;endArrow&quot;:&quot;none&quot;,&quot;segment&quot;:10,&quot;curved&quot;:1,&quot;sourcePerimeterSpacing&quot;:0,&quot;targetPerimeterSpacing&quot;:0};fillColor=#b0e3e6;strokeColor=#0e8088;container=0;" vertex="1" parent="4T8DUvPG1SAxmXyFzRtK-12">
          <mxGeometry x="620" y="340" width="120" height="30" as="geometry" />
        </mxCell>
        <mxCell id="1eWwv-I8uEaylaqoxTNq-131" value="Ericsson: 5G and XR" style="whiteSpace=wrap;html=1;rounded=1;arcSize=50;align=center;verticalAlign=middle;strokeWidth=1;autosize=1;spacing=4;treeFolding=1;treeMoving=1;newEdgeStyle={&quot;edgeStyle&quot;:&quot;entityRelationEdgeStyle&quot;,&quot;startArrow&quot;:&quot;none&quot;,&quot;endArrow&quot;:&quot;none&quot;,&quot;segment&quot;:10,&quot;curved&quot;:1,&quot;sourcePerimeterSpacing&quot;:0,&quot;targetPerimeterSpacing&quot;:0};fillColor=#b0e3e6;strokeColor=#0e8088;container=0;" vertex="1" parent="4T8DUvPG1SAxmXyFzRtK-12">
          <mxGeometry x="420" y="340" width="160" height="30" as="geometry" />
        </mxCell>
        <mxCell id="1eWwv-I8uEaylaqoxTNq-132" value="" style="edgeStyle=entityRelationEdgeStyle;rounded=0;orthogonalLoop=1;jettySize=auto;html=1;startArrow=none;endArrow=none;segment=10;curved=1;sourcePerimeterSpacing=0;targetPerimeterSpacing=0;" edge="1" parent="4T8DUvPG1SAxmXyFzRtK-12" source="1eWwv-I8uEaylaqoxTNq-129" target="1eWwv-I8uEaylaqoxTNq-131">
          <mxGeometry relative="1" as="geometry" />
        </mxCell>
        <mxCell id="1eWwv-I8uEaylaqoxTNq-133" value="downlink" style="whiteSpace=wrap;html=1;rounded=1;arcSize=50;align=center;verticalAlign=middle;strokeWidth=1;autosize=1;spacing=4;treeFolding=1;treeMoving=1;newEdgeStyle={&quot;edgeStyle&quot;:&quot;entityRelationEdgeStyle&quot;,&quot;startArrow&quot;:&quot;none&quot;,&quot;endArrow&quot;:&quot;none&quot;,&quot;segment&quot;:10,&quot;curved&quot;:1,&quot;sourcePerimeterSpacing&quot;:0,&quot;targetPerimeterSpacing&quot;:0};fillColor=#b0e3e6;strokeColor=#0e8088;container=0;" vertex="1" parent="4T8DUvPG1SAxmXyFzRtK-12">
          <mxGeometry x="285" y="280" width="90" height="30" as="geometry" />
        </mxCell>
        <mxCell id="1eWwv-I8uEaylaqoxTNq-134" value="" style="edgeStyle=entityRelationEdgeStyle;rounded=0;orthogonalLoop=1;jettySize=auto;html=1;startArrow=none;endArrow=none;segment=10;curved=1;sourcePerimeterSpacing=0;targetPerimeterSpacing=0;" edge="1" parent="4T8DUvPG1SAxmXyFzRtK-12" source="1eWwv-I8uEaylaqoxTNq-131" target="1eWwv-I8uEaylaqoxTNq-133">
          <mxGeometry relative="1" as="geometry" />
        </mxCell>
        <mxCell id="1eWwv-I8uEaylaqoxTNq-135" value="" style="edgeStyle=entityRelationEdgeStyle;rounded=0;orthogonalLoop=1;jettySize=auto;html=1;startArrow=none;endArrow=none;segment=10;curved=1;sourcePerimeterSpacing=0;targetPerimeterSpacing=0;" edge="1" parent="4T8DUvPG1SAxmXyFzRtK-12" source="1eWwv-I8uEaylaqoxTNq-131" target="1eWwv-I8uEaylaqoxTNq-133">
          <mxGeometry relative="1" as="geometry" />
        </mxCell>
        <mxCell id="1eWwv-I8uEaylaqoxTNq-136" value="" style="edgeStyle=entityRelationEdgeStyle;rounded=0;orthogonalLoop=1;jettySize=auto;html=1;startArrow=none;endArrow=none;segment=10;curved=1;sourcePerimeterSpacing=0;targetPerimeterSpacing=0;" edge="1" parent="4T8DUvPG1SAxmXyFzRtK-12" source="1eWwv-I8uEaylaqoxTNq-131" target="1eWwv-I8uEaylaqoxTNq-133">
          <mxGeometry relative="1" as="geometry" />
        </mxCell>
        <mxCell id="1eWwv-I8uEaylaqoxTNq-137" value="" style="edgeStyle=entityRelationEdgeStyle;rounded=0;orthogonalLoop=1;jettySize=auto;html=1;startArrow=none;endArrow=none;segment=10;curved=1;sourcePerimeterSpacing=0;targetPerimeterSpacing=0;" edge="1" parent="4T8DUvPG1SAxmXyFzRtK-12" source="1eWwv-I8uEaylaqoxTNq-131" target="1eWwv-I8uEaylaqoxTNq-133">
          <mxGeometry relative="1" as="geometry" />
        </mxCell>
        <mxCell id="1eWwv-I8uEaylaqoxTNq-138" value="" style="edgeStyle=entityRelationEdgeStyle;rounded=0;orthogonalLoop=1;jettySize=auto;html=1;startArrow=none;endArrow=none;segment=10;curved=1;sourcePerimeterSpacing=0;targetPerimeterSpacing=0;" edge="1" parent="4T8DUvPG1SAxmXyFzRtK-12" source="1eWwv-I8uEaylaqoxTNq-131" target="1eWwv-I8uEaylaqoxTNq-133">
          <mxGeometry relative="1" as="geometry" />
        </mxCell>
        <mxCell id="1eWwv-I8uEaylaqoxTNq-139" value="uplink" style="whiteSpace=wrap;html=1;rounded=1;arcSize=50;align=center;verticalAlign=middle;strokeWidth=1;autosize=1;spacing=4;treeFolding=1;treeMoving=1;newEdgeStyle={&quot;edgeStyle&quot;:&quot;entityRelationEdgeStyle&quot;,&quot;startArrow&quot;:&quot;none&quot;,&quot;endArrow&quot;:&quot;none&quot;,&quot;segment&quot;:10,&quot;curved&quot;:1,&quot;sourcePerimeterSpacing&quot;:0,&quot;targetPerimeterSpacing&quot;:0};fillColor=#b0e3e6;strokeColor=#0e8088;container=0;" vertex="1" parent="4T8DUvPG1SAxmXyFzRtK-12">
          <mxGeometry x="295" y="340" width="80" height="30" as="geometry" />
        </mxCell>
        <mxCell id="1eWwv-I8uEaylaqoxTNq-140" value="" style="edgeStyle=entityRelationEdgeStyle;rounded=0;orthogonalLoop=1;jettySize=auto;html=1;startArrow=none;endArrow=none;segment=10;curved=1;sourcePerimeterSpacing=0;targetPerimeterSpacing=0;" edge="1" parent="4T8DUvPG1SAxmXyFzRtK-12" source="1eWwv-I8uEaylaqoxTNq-131" target="1eWwv-I8uEaylaqoxTNq-139">
          <mxGeometry relative="1" as="geometry" />
        </mxCell>
        <mxCell id="1eWwv-I8uEaylaqoxTNq-141" value="one way latency" style="whiteSpace=wrap;html=1;rounded=1;arcSize=50;align=center;verticalAlign=middle;strokeWidth=1;autosize=1;spacing=4;treeFolding=1;treeMoving=1;newEdgeStyle={&quot;edgeStyle&quot;:&quot;entityRelationEdgeStyle&quot;,&quot;startArrow&quot;:&quot;none&quot;,&quot;endArrow&quot;:&quot;none&quot;,&quot;segment&quot;:10,&quot;curved&quot;:1,&quot;sourcePerimeterSpacing&quot;:0,&quot;targetPerimeterSpacing&quot;:0};fillColor=#b0e3e6;strokeColor=#0e8088;container=0;" vertex="1" parent="4T8DUvPG1SAxmXyFzRtK-12">
          <mxGeometry x="245" y="400" width="130" height="30" as="geometry" />
        </mxCell>
        <mxCell id="1eWwv-I8uEaylaqoxTNq-142" value="" style="edgeStyle=entityRelationEdgeStyle;rounded=0;orthogonalLoop=1;jettySize=auto;html=1;startArrow=none;endArrow=none;segment=10;curved=1;sourcePerimeterSpacing=0;targetPerimeterSpacing=0;" edge="1" parent="4T8DUvPG1SAxmXyFzRtK-12" source="1eWwv-I8uEaylaqoxTNq-131" target="1eWwv-I8uEaylaqoxTNq-141">
          <mxGeometry relative="1" as="geometry" />
        </mxCell>
        <mxCell id="1eWwv-I8uEaylaqoxTNq-143" value="8-30 Mbps" style="whiteSpace=wrap;html=1;rounded=1;arcSize=50;align=center;verticalAlign=middle;strokeWidth=1;autosize=1;spacing=4;treeFolding=1;treeMoving=1;newEdgeStyle={&quot;edgeStyle&quot;:&quot;entityRelationEdgeStyle&quot;,&quot;startArrow&quot;:&quot;none&quot;,&quot;endArrow&quot;:&quot;none&quot;,&quot;segment&quot;:10,&quot;curved&quot;:1,&quot;sourcePerimeterSpacing&quot;:0,&quot;targetPerimeterSpacing&quot;:0};fillColor=#b0e3e6;strokeColor=#0e8088;container=0;" vertex="1" parent="4T8DUvPG1SAxmXyFzRtK-12">
          <mxGeometry x="105" y="280" width="100" height="30" as="geometry" />
        </mxCell>
        <mxCell id="1eWwv-I8uEaylaqoxTNq-144" value="" style="edgeStyle=entityRelationEdgeStyle;rounded=0;orthogonalLoop=1;jettySize=auto;html=1;startArrow=none;endArrow=none;segment=10;curved=1;sourcePerimeterSpacing=0;targetPerimeterSpacing=0;" edge="1" parent="4T8DUvPG1SAxmXyFzRtK-12" source="1eWwv-I8uEaylaqoxTNq-133" target="1eWwv-I8uEaylaqoxTNq-143">
          <mxGeometry relative="1" as="geometry" />
        </mxCell>
        <mxCell id="1eWwv-I8uEaylaqoxTNq-145" value="~0.3 Mbps" style="whiteSpace=wrap;html=1;rounded=1;arcSize=50;align=center;verticalAlign=middle;strokeWidth=1;autosize=1;spacing=4;treeFolding=1;treeMoving=1;newEdgeStyle={&quot;edgeStyle&quot;:&quot;entityRelationEdgeStyle&quot;,&quot;startArrow&quot;:&quot;none&quot;,&quot;endArrow&quot;:&quot;none&quot;,&quot;segment&quot;:10,&quot;curved&quot;:1,&quot;sourcePerimeterSpacing&quot;:0,&quot;targetPerimeterSpacing&quot;:0};fillColor=#b0e3e6;strokeColor=#0e8088;container=0;" vertex="1" parent="4T8DUvPG1SAxmXyFzRtK-12">
          <mxGeometry x="105" y="340" width="100" height="30" as="geometry" />
        </mxCell>
        <mxCell id="1eWwv-I8uEaylaqoxTNq-146" value="" style="edgeStyle=entityRelationEdgeStyle;rounded=0;orthogonalLoop=1;jettySize=auto;html=1;startArrow=none;endArrow=none;segment=10;curved=1;sourcePerimeterSpacing=0;targetPerimeterSpacing=0;" edge="1" parent="4T8DUvPG1SAxmXyFzRtK-12" source="1eWwv-I8uEaylaqoxTNq-139" target="1eWwv-I8uEaylaqoxTNq-145">
          <mxGeometry relative="1" as="geometry" />
        </mxCell>
        <mxCell id="1eWwv-I8uEaylaqoxTNq-147" value="10-30 ms" style="whiteSpace=wrap;html=1;rounded=1;arcSize=50;align=center;verticalAlign=middle;strokeWidth=1;autosize=1;spacing=4;treeFolding=1;treeMoving=1;newEdgeStyle={&quot;edgeStyle&quot;:&quot;entityRelationEdgeStyle&quot;,&quot;startArrow&quot;:&quot;none&quot;,&quot;endArrow&quot;:&quot;none&quot;,&quot;segment&quot;:10,&quot;curved&quot;:1,&quot;sourcePerimeterSpacing&quot;:0,&quot;targetPerimeterSpacing&quot;:0};fillColor=#b0e3e6;strokeColor=#0e8088;container=0;" vertex="1" parent="4T8DUvPG1SAxmXyFzRtK-12">
          <mxGeometry x="115" y="400" width="90" height="30" as="geometry" />
        </mxCell>
        <mxCell id="1eWwv-I8uEaylaqoxTNq-148" value="" style="edgeStyle=entityRelationEdgeStyle;rounded=0;orthogonalLoop=1;jettySize=auto;html=1;startArrow=none;endArrow=none;segment=10;curved=1;sourcePerimeterSpacing=0;targetPerimeterSpacing=0;" edge="1" parent="4T8DUvPG1SAxmXyFzRtK-12" source="1eWwv-I8uEaylaqoxTNq-141" target="1eWwv-I8uEaylaqoxTNq-147">
          <mxGeometry relative="1" as="geometry" />
        </mxCell>
        <mxCell id="1eWwv-I8uEaylaqoxTNq-149" value="Frame reliability" style="whiteSpace=wrap;html=1;rounded=1;arcSize=50;align=center;verticalAlign=middle;strokeWidth=1;autosize=1;spacing=4;treeFolding=1;treeMoving=1;newEdgeStyle={&quot;edgeStyle&quot;:&quot;entityRelationEdgeStyle&quot;,&quot;startArrow&quot;:&quot;none&quot;,&quot;endArrow&quot;:&quot;none&quot;,&quot;segment&quot;:10,&quot;curved&quot;:1,&quot;sourcePerimeterSpacing&quot;:0,&quot;targetPerimeterSpacing&quot;:0};fillColor=#b0e3e6;strokeColor=#0e8088;container=0;" vertex="1" parent="4T8DUvPG1SAxmXyFzRtK-12">
          <mxGeometry x="245" y="450" width="130" height="30" as="geometry" />
        </mxCell>
        <mxCell id="1eWwv-I8uEaylaqoxTNq-130" style="edgeStyle=entityRelationEdgeStyle;rounded=0;orthogonalLoop=1;jettySize=auto;html=1;startArrow=none;endArrow=none;segment=10;curved=1;sourcePerimeterSpacing=0;targetPerimeterSpacing=0;entryX=1;entryY=0.5;entryDx=0;entryDy=0;" edge="1" parent="4T8DUvPG1SAxmXyFzRtK-12" source="1eWwv-I8uEaylaqoxTNq-131" target="1eWwv-I8uEaylaqoxTNq-149">
          <mxGeometry relative="1" as="geometry" />
        </mxCell>
        <mxCell id="1eWwv-I8uEaylaqoxTNq-150" value="" style="edgeStyle=entityRelationEdgeStyle;rounded=0;orthogonalLoop=1;jettySize=auto;html=1;startArrow=none;endArrow=none;segment=10;curved=1;sourcePerimeterSpacing=0;targetPerimeterSpacing=0;" edge="1" parent="4T8DUvPG1SAxmXyFzRtK-12" source="1eWwv-I8uEaylaqoxTNq-149" target="1eWwv-I8uEaylaqoxTNq-151">
          <mxGeometry relative="1" as="geometry">
            <mxPoint x="800" y="575" as="sourcePoint" />
          </mxGeometry>
        </mxCell>
        <mxCell id="1eWwv-I8uEaylaqoxTNq-151" value="&amp;gt;= 99 %" style="whiteSpace=wrap;html=1;rounded=1;arcSize=50;align=center;verticalAlign=middle;strokeWidth=1;autosize=1;spacing=4;treeFolding=1;treeMoving=1;newEdgeStyle={&quot;edgeStyle&quot;:&quot;entityRelationEdgeStyle&quot;,&quot;startArrow&quot;:&quot;none&quot;,&quot;endArrow&quot;:&quot;none&quot;,&quot;segment&quot;:10,&quot;curved&quot;:1,&quot;sourcePerimeterSpacing&quot;:0,&quot;targetPerimeterSpacing&quot;:0};fillColor=#b0e3e6;strokeColor=#0e8088;container=0;" vertex="1" parent="4T8DUvPG1SAxmXyFzRtK-12">
          <mxGeometry x="115" y="450" width="90" height="30" as="geometry" />
        </mxCell>
      </root>
    </mxGraphModel>
  </diagram>
</mxfile>
